<svg version="1.1" xmlns="http://www.w3.org/2000/svg" viewBox="0 0 1080.474998474121 504.2371284469991" width="1080.474998474121" height="504.2371284469991" filter="invert(93%) hue-rotate(180deg)">
  <!-- svg-source:excalidraw -->
  
  <defs>
    <style class="style-fonts">
      @font-face {
        font-family: "Virgil";
        src: url("https://excalidraw.com/Virgil.woff2");
      }
      @font-face {
        font-family: "Cascadia";
        src: url("https://excalidraw.com/Cascadia.woff2");
      }
      @font-face {
        font-family: "Assistant";
        src: url("https://excalidraw.com/Assistant-Regular.woff2");
      }
    </style>
    
  </defs>
  <rect x="0" y="0" width="1080.474998474121" height="504.2371284469991" fill="#ffffff"></rect><g stroke-linecap="round" transform="translate(209.4749984741211 53.942947901785374) rotate(0 99 31)"><path d="M15.5 0 C55.08 0.11, 92.04 -0.77, 182.5 0 M15.5 0 C55.05 -1.08, 95.22 -0.93, 182.5 0 M182.5 0 C192.69 -1.16, 198.73 3.63, 198 15.5 M182.5 0 C194.63 0.73, 197.21 6.98, 198 15.5 M198 15.5 C197.45 25.97, 195.94 35.8, 198 46.5 M198 15.5 C197.13 25.65, 197.65 36.11, 198 46.5 M198 46.5 C196.89 55.5, 193.86 60.08, 182.5 62 M198 46.5 C197.13 58.17, 192.97 61.26, 182.5 62 M182.5 62 C130.52 61.97, 75.53 60.51, 15.5 62 M182.5 62 C138.16 63, 92.77 62.32, 15.5 62 M15.5 62 C5 61.89, -1.24 57.99, 0 46.5 M15.5 62 C6.82 63.45, -1.38 57.05, 0 46.5 M0 46.5 C-0.7 37.17, 1.53 27.47, 0 15.5 M0 46.5 C-0.46 34.77, 0.82 22.47, 0 15.5 M0 15.5 C1.93 7.15, 4.53 -1.18, 15.5 0 M0 15.5 C2.29 6.93, 5.02 -0.17, 15.5 0" stroke="#1e1e1e" stroke-width="2" fill="none"></path></g><g transform="translate(242.25833129882812 59.942947901785374) rotate(0 66.21666717529297 25)"><text x="66.21666717529297" y="0" font-family="Virgil, Segoe UI Emoji" font-size="20px" fill="#1e1e1e" text-anchor="middle" style="white-space: pre;" direction="ltr" dominant-baseline="text-before-edge">Before First </text><text x="66.21666717529297" y="25" font-family="Virgil, Segoe UI Emoji" font-size="20px" fill="#1e1e1e" text-anchor="middle" style="white-space: pre;" direction="ltr" dominant-baseline="text-before-edge">Space</text></g><g stroke-linecap="round" transform="translate(531.4749984741211 160.94294790178537) rotate(0 66.5 25)"><path d="M12.5 0 C43.14 -0.71, 71.46 -2.38, 120.5 0 M12.5 0 C54.61 -0.19, 96.38 1.24, 120.5 0 M120.5 0 C129.53 -1.6, 132.96 6.16, 133 12.5 M120.5 0 C130.93 0.92, 134.24 3.41, 133 12.5 M133 12.5 C133.19 21.58, 132.51 29.06, 133 37.5 M133 12.5 C133.97 19.15, 133.86 24.94, 133 37.5 M133 37.5 C134.39 44.93, 128.72 51.78, 120.5 50 M133 37.5 C134.6 45.7, 130.6 52.22, 120.5 50 M120.5 50 C90.06 50.8, 55.56 50.28, 12.5 50 M120.5 50 C81.86 51.59, 41.63 50.97, 12.5 50 M12.5 50 C5.18 49.77, 0.04 44.78, 0 37.5 M12.5 50 C6.19 50.11, 1.63 46.96, 0 37.5 M0 37.5 C0.73 30.76, 1.01 26.63, 0 12.5 M0 37.5 C-0.87 32.36, -1.03 26.41, 0 12.5 M0 12.5 C0.4 2.82, 4.84 -1.8, 12.5 0 M0 12.5 C0.98 2.24, 2.53 -0.77, 12.5 0" stroke="#1e1e1e" stroke-width="2" fill="none"></path></g><g transform="translate(543.783332824707 173.44294790178537) rotate(0 54.19166564941406 12.5)"><text x="54.19166564941406" y="0" font-family="Virgil, Segoe UI Emoji" font-size="20px" fill="#1e1e1e" text-anchor="middle" style="white-space: pre;" direction="ltr" dominant-baseline="text-before-edge">Before Key</text></g><g stroke-linecap="round" transform="translate(945.4749984741211 173.94294790178537) rotate(0 62.5 27)"><path d="M13.5 0 C52.08 1.11, 87.75 0.36, 111.5 0 M13.5 0 C37.38 -0.15, 61.85 0.73, 111.5 0 M111.5 0 C119.55 -0.3, 126.72 4, 125 13.5 M111.5 0 C120 1.5, 124.83 3.31, 125 13.5 M125 13.5 C123.23 23.66, 123.92 30.37, 125 40.5 M125 13.5 C124.95 20.41, 124.31 26.68, 125 40.5 M125 40.5 C123.03 47.92, 121.31 52.71, 111.5 54 M125 40.5 C127.15 49.6, 119.36 52.88, 111.5 54 M111.5 54 C82.5 52.02, 49 53.57, 13.5 54 M111.5 54 C89.7 55.51, 68.23 54.72, 13.5 54 M13.5 54 C5.72 52.76, -0.86 48.22, 0 40.5 M13.5 54 C4.85 55.6, -1.99 50.23, 0 40.5 M0 40.5 C-0.25 29.84, 1.04 22.75, 0 13.5 M0 40.5 C0.66 33.52, -0.19 25.93, 0 13.5 M0 13.5 C1.4 5.65, 2.96 -0.85, 13.5 0 M0 13.5 C-0.78 2.52, 2.82 0.59, 13.5 0" stroke="#1e1e1e" stroke-width="2" fill="none"></path></g><g transform="translate(951.7583312988281 188.44294790178537) rotate(0 56.21666717529297 12.5)"><text x="56.21666717529297" y="0" font-family="Virgil, Segoe UI Emoji" font-size="20px" fill="#1e1e1e" text-anchor="middle" style="white-space: pre;" direction="ltr" dominant-baseline="text-before-edge">First String</text></g><g stroke-linecap="round" transform="translate(682.9749984741211 312.4429479017854) rotate(0 62 17.5)"><path d="M8.75 0 C36.32 -1.35, 61.39 0.94, 115.25 0 M8.75 0 C43.24 -0.53, 75.41 1.28, 115.25 0 M115.25 0 C119.32 0.18, 125.51 4.49, 124 8.75 M115.25 0 C121.67 1.12, 123.43 4.07, 124 8.75 M124 8.75 C124.05 15.5, 124.9 21.28, 124 26.25 M124 8.75 C123.49 14.32, 124.28 18.84, 124 26.25 M124 26.25 C122.17 30.19, 121.46 34.67, 115.25 35 M124 26.25 C123.72 31.23, 121.76 35.7, 115.25 35 M115.25 35 C72.37 35.08, 29.04 36.67, 8.75 35 M115.25 35 C85.92 36.44, 57.99 36.25, 8.75 35 M8.75 35 C3.93 36.44, 1.31 30.09, 0 26.25 M8.75 35 C1.28 33.44, -1.91 30.89, 0 26.25 M0 26.25 C-1.61 21.54, -0.47 15.97, 0 8.75 M0 26.25 C-0.54 21.26, 0.15 17.57, 0 8.75 M0 8.75 C0.28 2.09, 3.19 -0.75, 8.75 0 M0 8.75 C1.27 4.92, 1.56 0.99, 8.75 0" stroke="#1e1e1e" stroke-width="2" fill="none"></path></g><g transform="translate(696.8499984741211 317.4429479017854) rotate(0 48.125 12.5)"><text x="48.125" y="0" font-family="Virgil, Segoe UI Emoji" font-size="20px" fill="#1e1e1e" text-anchor="middle" style="white-space: pre;" direction="ltr" dominant-baseline="text-before-edge">After Key</text></g><g stroke-linecap="round" transform="translate(269.9749984741211 282.4429479017854) rotate(0 71 25)"><path d="M12.5 0 C46.22 -0.56, 80.94 -0.72, 129.5 0 M12.5 0 C40.54 0.06, 66.43 0.6, 129.5 0 M129.5 0 C138.44 -1.46, 141.6 5.22, 142 12.5 M129.5 0 C139.15 -1.31, 143.19 3.65, 142 12.5 M142 12.5 C141.5 20.01, 141.69 29.36, 142 37.5 M142 12.5 C141.42 17, 142.48 23.05, 142 37.5 M142 37.5 C143.55 47.05, 137.62 50.3, 129.5 50 M142 37.5 C144.16 46.21, 138.54 51.19, 129.5 50 M129.5 50 C102.72 48.55, 76.64 50.17, 12.5 50 M129.5 50 C90.95 49.1, 52.16 48.33, 12.5 50 M12.5 50 C5.47 49.64, -0.77 47.16, 0 37.5 M12.5 50 C3.75 50.77, 1.83 46.13, 0 37.5 M0 37.5 C0.45 29.59, -1.47 17.97, 0 12.5 M0 37.5 C-0.46 28.09, -0.48 18.82, 0 12.5 M0 12.5 C0.47 5.37, 6.14 0.22, 12.5 0 M0 12.5 C-0.38 2.9, 4.34 1.64, 12.5 0" stroke="#1e1e1e" stroke-width="2" fill="none"></path></g><g transform="translate(280.7083320617676 294.9429479017854) rotate(0 60.266666412353516 12.5)"><text x="60.266666412353516" y="0" font-family="Virgil, Segoe UI Emoji" font-size="20px" fill="#1e1e1e" text-anchor="middle" style="white-space: pre;" direction="ltr" dominant-baseline="text-before-edge">During Value</text></g><g stroke-linecap="round" transform="translate(408.4749984741211 214.94294790178537) rotate(0 37.5 17.5)"><path d="M8.75 0 C24.04 -0.85, 40.8 -0.34, 66.25 0 M8.75 0 C21.47 0.42, 34.61 0.65, 66.25 0 M66.25 0 C72.29 1.02, 74.2 3.1, 75 8.75 M66.25 0 C70.22 1.87, 73.67 2.37, 75 8.75 M75 8.75 C76.34 14.46, 75.49 23.91, 75 26.25 M75 8.75 C74.23 13.03, 74.56 18.04, 75 26.25 M75 26.25 C75.66 33.33, 71.94 35.06, 66.25 35 M75 26.25 C73.42 31.34, 71.9 35.75, 66.25 35 M66.25 35 C54.61 33.68, 39.86 34.46, 8.75 35 M66.25 35 C43.47 35.66, 22.13 34.86, 8.75 35 M8.75 35 C4.63 35.27, 1.91 33.38, 0 26.25 M8.75 35 C1.38 34.74, 2.14 31.35, 0 26.25 M0 26.25 C-0.62 20.72, -0.09 14.32, 0 8.75 M0 26.25 C0.55 21.75, 0.09 16.22, 0 8.75 M0 8.75 C1.74 4.26, 4.86 1.06, 8.75 0 M0 8.75 C-1.11 3.2, 1.93 -0.66, 8.75 0" stroke="#1e1e1e" stroke-width="2" fill="none"></path></g><g transform="translate(417.73333168029785 219.94294790178537) rotate(0 28.241666793823242 12.5)"><text x="28.241666793823242" y="0" font-family="Virgil, Segoe UI Emoji" font-size="20px" fill="#1e1e1e" text-anchor="middle" style="white-space: pre;" direction="ltr" dominant-baseline="text-before-edge">DONE</text></g><g mask="url(#mask-OrnvzGSdx3ZIBZqWngfBb)" stroke-linecap="round"><g transform="translate(335.4465235977118 117.9429479017854) rotate(0 43.26783678427677 47.999999999999986)"><path d="M0.6 -0.82 C15.02 15.1, 72.12 79.27, 86.43 95.45 M-0.54 1.36 C13.72 17.44, 71.06 80.64, 85.42 96.7" stroke="#1e1e1e" stroke-width="2" fill="none"></path></g><g transform="translate(335.4465235977118 117.9429479017854) rotate(0 43.26783678427677 47.999999999999986)"><path d="M63.34 84.97 C68.44 88.12, 75.37 91.61, 85.42 96.7 M63.34 84.97 C70.12 89.66, 78.29 93.41, 85.42 96.7" stroke="#1e1e1e" stroke-width="2" fill="none"></path></g><g transform="translate(335.4465235977118 117.9429479017854) rotate(0 43.26783678427677 47.999999999999986)"><path d="M76.04 73.52 C77.41 80.09, 80.61 86.94, 85.42 96.7 M76.04 73.52 C78.62 81.88, 82.72 89.31, 85.42 96.7" stroke="#1e1e1e" stroke-width="2" fill="none"></path></g></g><mask id="mask-OrnvzGSdx3ZIBZqWngfBb"><rect x="0" y="0" fill="#fff" width="521.9821971662653" height="313.9429479017854"></rect><rect x="347.5310279387513" y="153.44294790178535" fill="#000" width="62.36666488647461" height="25" opacity="1"></rect></mask><g transform="translate(347.5310279387513 153.44294790178537) rotate(0 30.861208258033685 12.436465910240088)"><text x="31.183332443237305" y="0" font-family="Virgil, Segoe UI Emoji" font-size="20px" fill="#1e1e1e" text-anchor="middle" style="white-space: pre;" direction="ltr" dominant-baseline="text-before-edge">newline</text></g><g mask="url(#mask-Drhna3_DTfNCSE6LEm0Yx)" stroke-linecap="round"><g transform="translate(390.9486245846176 116.94294790178537) rotate(0 69.76318694475174 24.797641630047025)"><path d="M-0.22 -0.7 C22.87 7.49, 115.55 41.76, 138.73 50.04 M-1.8 1.54 C21.67 9.28, 117.77 40.08, 141.03 48.14" stroke="#1e1e1e" stroke-width="2" fill="none"></path></g><g transform="translate(390.9486245846176 116.94294790178537) rotate(0 69.76318694475174 24.797641630047025)"><path d="M116.04 48.87 C122.71 47.36, 132.47 47.33, 141.03 48.14 M116.04 48.87 C121.48 47.51, 128.97 47.97, 141.03 48.14" stroke="#1e1e1e" stroke-width="2" fill="none"></path></g><g transform="translate(390.9486245846176 116.94294790178537) rotate(0 69.76318694475174 24.797641630047025)"><path d="M121.42 32.63 C126.52 36.22, 134.59 41.29, 141.03 48.14 M121.42 32.63 C125.5 35.32, 131.66 39.79, 141.03 48.14" stroke="#1e1e1e" stroke-width="2" fill="none"></path></g></g><mask id="mask-Drhna3_DTfNCSE6LEm0Yx"><rect x="0" y="0" fill="#fff" width="630.4749984741211" height="266.5382311618794"></rect><rect x="433.19514511701584" y="129.24058953183237" fill="#000" width="55.03333282470703" height="25" opacity="1"></rect></mask><g transform="translate(433.1951451170157 129.24058953183243) rotate(0 27.3693074201513 12.367656888067728)"><text x="27.516666412353516" y="0" font-family="Virgil, Segoe UI Emoji" font-size="20px" fill="#1e1e1e" text-anchor="middle" style="white-space: pre;" direction="ltr" dominant-baseline="text-before-edge">space</text></g><g mask="url(#mask-ACTrfo9EYquOD0OxM3PD8)" stroke-linecap="round"><g transform="translate(594.5929905620291 227.84993376903594) rotate(0 39.802933624691036 -100.28595929228396)"><path d="M-0.06 -67.4 C13.65 -77.06, 83.09 -117.33, 83.23 -126.9 C83.38 -136.47, 14.42 -134.54, 0.81 -124.83 C-12.8 -115.11, 1.41 -78.06, 1.6 -68.6 M-1.54 -68.18 C12.47 -77.54, 85.35 -116.07, 85.61 -125.31 C85.86 -134.54, 14.03 -133.16, 0.01 -123.59 C-14.02 -114.01, 0.82 -77.17, 1.47 -67.86" stroke="#1e1e1e" stroke-width="2" fill="none"></path></g><g transform="translate(594.5929905620291 227.84993376903594) rotate(0 39.802933624691036 -100.28595929228396)"><path d="M-12.07 -88.87 C-6.22 -81.9, -1.71 -72.89, 1.47 -67.86 M-12.07 -88.87 C-8.63 -82.88, -3.69 -77.19, 1.47 -67.86" stroke="#1e1e1e" stroke-width="2" fill="none"></path></g><g transform="translate(594.5929905620291 227.84993376903594) rotate(0 39.802933624691036 -100.28595929228396)"><path d="M4.61 -92.66 C4.04 -84.24, 2.16 -73.78, 1.47 -67.86 M4.61 -92.66 C3.23 -85.67, 3.38 -78.9, 1.47 -67.86" stroke="#1e1e1e" stroke-width="2" fill="none"></path></g></g><mask id="mask-ACTrfo9EYquOD0OxM3PD8"><rect x="0" y="0" fill="#fff" width="778.4749984741211" height="386.94294790178543"></rect><rect x="607.6674566025591" y="82.52294607482452" fill="#000" width="55.03333282470703" height="25" opacity="1"></rect></mask><g transform="translate(607.6674566025591 82.52294607482453) rotate(0 26.728467584160853 45.04102840192746)"><text x="27.516666412353516" y="0" font-family="Virgil, Segoe UI Emoji" font-size="20px" fill="#1e1e1e" text-anchor="middle" style="white-space: pre;" direction="ltr" dominant-baseline="text-before-edge">space</text></g><g mask="url(#mask-I50M4NMrbte8y9pyf_3Rc)" stroke-linecap="round"><g transform="translate(666.4749984741212 180.0272842593941) rotate(0 138.99999999999994 9.989853817537863)"><path d="M0.48 0.7 C47.16 4.19, 233 16.62, 279.1 19.81 M-0.73 0.02 C45.97 3.81, 232.03 17.75, 278.74 21.26" stroke="#1e1e1e" stroke-width="2" fill="none"></path></g><g transform="translate(666.4749984741212 180.0272842593941) rotate(0 138.99999999999994 9.989853817537863)"><path d="M254.67 28.02 C261.22 28.27, 265.09 23.43, 278.74 21.26 M254.67 28.02 C262.42 25.03, 268 24.42, 278.74 21.26" stroke="#1e1e1e" stroke-width="2" fill="none"></path></g><g transform="translate(666.4749984741212 180.0272842593941) rotate(0 138.99999999999994 9.989853817537863)"><path d="M255.95 10.97 C262.05 15, 265.64 13.93, 278.74 21.26 M255.95 10.97 C263.37 12.91, 268.58 17.23, 278.74 21.26" stroke="#1e1e1e" stroke-width="2" fill="none"></path></g></g><mask id="mask-I50M4NMrbte8y9pyf_3Rc"><rect x="0" y="0" fill="#fff" width="1044.474998474121" height="300.0069918944698"></rect><rect x="722.3249969482421" y="165.01713807693193" fill="#000" width="166.3000030517578" height="50" opacity="1"></rect></mask><g transform="translate(722.3249969482422 165.01713807693193) rotate(0 83.3395758835087 25.648111246703223)"><text x="83.1500015258789" y="0" font-family="Virgil, Segoe UI Emoji" font-size="20px" fill="#1e1e1e" text-anchor="middle" style="white-space: pre;" direction="ltr" dominant-baseline="text-before-edge">other (start of </text><text x="83.1500015258789" y="25" font-family="Virgil, Segoe UI Emoji" font-size="20px" fill="#1e1e1e" text-anchor="middle" style="white-space: pre;" direction="ltr" dominant-baseline="text-before-edge">key/value)</text></g><g mask="url(#mask-ZFb4usm0xwkhzw8EhTkRb)" stroke-linecap="round"><g transform="translate(989.6912597694234 228.94294790178537) rotate(0 -115.89395735599953 40)"><path d="M-1.18 0.82 C-39.83 14.06, -192.67 66.51, -231.16 79.55 M0.4 0.21 C-38.42 13.59, -192.87 67.56, -231.77 80.86" stroke="#1e1e1e" stroke-width="2" fill="none"></path></g><g transform="translate(989.6912597694234 228.94294790178537) rotate(0 -115.89395735599953 40)"><path d="M-212.37 65.09 C-217.99 71.66, -227.12 75.78, -231.77 80.86 M-212.37 65.09 C-216.15 68.16, -221.79 71.51, -231.77 80.86" stroke="#1e1e1e" stroke-width="2" fill="none"></path></g><g transform="translate(989.6912597694234 228.94294790178537) rotate(0 -115.89395735599953 40)"><path d="M-206.78 81.25 C-214.44 81.92, -225.6 80.2, -231.77 80.86 M-206.78 81.25 C-211.91 80.65, -218.81 80.35, -231.77 80.86" stroke="#1e1e1e" stroke-width="2" fill="none"></path></g></g><mask id="mask-ZFb4usm0xwkhzw8EhTkRb"><rect x="0" y="0" fill="#fff" width="1321.4791744814224" height="408.9429479017854"></rect><rect x="786.613968062838" y="256.4429479017854" fill="#000" width="174.36666870117188" height="25" opacity="1"></rect></mask><g transform="translate(786.613968062838 256.4429479017854) rotate(0 87.39162823070762 13.033887358559298)"><text x="87.18333435058594" y="0" font-family="Virgil, Segoe UI Emoji" font-size="20px" fill="#1e1e1e" text-anchor="middle" style="white-space: pre;" direction="ltr" dominant-baseline="text-before-edge">colon (end of key)</text></g><g mask="url(#mask-sXk-Z7jS627FVF1TYm8De)" stroke-linecap="round"><g transform="translate(681.9749984741212 321.8339496174898) rotate(0 -131.75000000000006 -10.415155915334367)"><path d="M-0.3 -0.3 C-44.26 -3.58, -219.26 -17.27, -262.97 -20.65 M1.74 -1.51 C-42.39 -4.48, -219.54 -16.08, -263.64 -19.02" stroke="#1e1e1e" stroke-width="2" fill="none"></path></g><g transform="translate(681.9749984741212 321.8339496174898) rotate(0 -131.75000000000006 -10.415155915334367)"><path d="M-239.64 -26.01 C-248.92 -22.65, -256.83 -19.44, -263.64 -19.02 M-239.64 -26.01 C-246.85 -24.62, -254.4 -22.06, -263.64 -19.02" stroke="#1e1e1e" stroke-width="2" fill="none"></path></g><g transform="translate(681.9749984741212 321.8339496174898) rotate(0 -131.75000000000006 -10.415155915334367)"><path d="M-240.76 -8.94 C-249.49 -11.78, -257 -14.77, -263.64 -19.02 M-240.76 -8.94 C-247.7 -13.03, -254.88 -15.94, -263.64 -19.02" stroke="#1e1e1e" stroke-width="2" fill="none"></path></g></g><mask id="mask-sXk-Z7jS627FVF1TYm8De"><rect x="0" y="0" fill="#fff" width="1045.4749984741213" height="442.6642614481585"></rect><rect x="467.0749969482421" y="286.4187937021554" fill="#000" width="166.3000030517578" height="50" opacity="1"></rect></mask><g transform="translate(467.0749969482422 286.4187937021554) rotate(0 83.95068413701841 24.93731912225485)"><text x="83.1500015258789" y="0" font-family="Virgil, Segoe UI Emoji" font-size="20px" fill="#1e1e1e" text-anchor="middle" style="white-space: pre;" direction="ltr" dominant-baseline="text-before-edge">other (start of </text><text x="83.1500015258789" y="25" font-family="Virgil, Segoe UI Emoji" font-size="20px" fill="#1e1e1e" text-anchor="middle" style="white-space: pre;" direction="ltr" dominant-baseline="text-before-edge">value)</text></g><g mask="url(#mask-Z3Yq9Be3xPApu1ZB62bp7)" stroke-linecap="round"><g transform="translate(277.28311280304 278.9429479017854) rotate(0 -21.598796169421746 -80.5)"><path d="M0.95 -1.09 C-6.02 -27.88, -35.6 -134.18, -42.86 -160.64 M-0.01 0.95 C-7.01 -26.23, -36.46 -135.48, -43.63 -162.58" stroke="#1e1e1e" stroke-width="2" fill="none"></path></g><g transform="translate(277.28311280304 278.9429479017854) rotate(0 -21.598796169421746 -80.5)"><path d="M-29.31 -142.09 C-34.2 -145.78, -34.83 -149.69, -43.63 -162.58 M-29.31 -142.09 C-35.55 -150.46, -41.35 -158.99, -43.63 -162.58" stroke="#1e1e1e" stroke-width="2" fill="none"></path></g><g transform="translate(277.28311280304 278.9429479017854) rotate(0 -21.598796169421746 -80.5)"><path d="M-45.83 -137.67 C-47.2 -142.43, -44.32 -147.29, -43.63 -162.58 M-45.83 -137.67 C-45.54 -147.9, -44.83 -158.17, -43.63 -162.58" stroke="#1e1e1e" stroke-width="2" fill="none"></path></g></g><mask id="mask-Z3Yq9Be3xPApu1ZB62bp7"><rect x="0" y="0" fill="#fff" width="420.4807051418835" height="539.9429479017854"></rect><rect x="150.0593166336182" y="185.94294790178537" fill="#000" width="211.25" height="25" opacity="1"></rect></mask><g transform="translate(150.05931663361827 185.94294790178537) rotate(0 105.88289924564307 12.184805341614421)"><text x="105.625" y="0" font-family="Virgil, Segoe UI Emoji" font-size="20px" fill="#1e1e1e" text-anchor="middle" style="white-space: pre;" direction="ltr" dominant-baseline="text-before-edge">newline (end of value)</text></g><g mask="url(#mask-Gn3N6cZiKt14w8ESHU8I7)" stroke-linecap="round"><g transform="translate(127.4749984741211 10.942947901785374) rotate(0 40.5 40.1162043123652)"><path d="M-0.86 -0.94 C12.48 12.55, 66.32 67.71, 79.96 81.27 M0.89 1.18 C14.6 14.33, 68.91 66.25, 82.13 79.69" stroke="#1e1e1e" stroke-width="2" fill="none"></path></g><g transform="translate(127.4749984741211 10.942947901785374) rotate(0 40.5 40.1162043123652)"><path d="M59.37 69.34 C64.44 70.78, 74.35 75.46, 82.13 79.69 M59.37 69.34 C66.34 73.23, 73.6 75.98, 82.13 79.69" stroke="#1e1e1e" stroke-width="2" fill="none"></path></g><g transform="translate(127.4749984741211 10.942947901785374) rotate(0 40.5 40.1162043123652)"><path d="M71.35 57.13 C72.97 62.03, 79.4 70.26, 82.13 79.69 M71.35 57.13 C74.52 64.9, 78 71.5, 82.13 79.69" stroke="#1e1e1e" stroke-width="2" fill="none"></path></g></g><mask id="mask-Gn3N6cZiKt14w8ESHU8I7"><rect x="0" y="0" fill="#fff" width="308.4749984741211" height="191.17535652651577"></rect><rect x="140.27499771118164" y="38.55915221415057" fill="#000" width="55.400001525878906" height="25" opacity="1"></rect></mask><g transform="translate(140.27499771118164 38.55915221415057) rotate(0 27.833473609895435 12.54692391008139)"><text x="27.700000762939453" y="0" font-family="Virgil, Segoe UI Emoji" font-size="20px" fill="#1e1e1e" text-anchor="middle" style="white-space: pre;" direction="ltr" dominant-baseline="text-before-edge">start</text></g><g mask="url(#mask-UOXW7mGc6SOerd67QFcPJ)" stroke-linecap="round"><g transform="translate(735.277426614083 348.9429479017854) rotate(0 69.65947596631486 70.04226977802088)"><path d="M0.12 0.12 C9.31 23.02, 31.74 121.52, 55.15 136.36 C78.55 151.19, 138.46 111.21, 140.55 89.1 C142.64 67, 80.02 18.27, 67.69 3.73 M-1.28 -0.86 C7.75 22.28, 30.72 122.33, 54.18 137.55 C77.63 152.78, 137.15 113.14, 139.44 90.48 C141.74 67.81, 79.84 16.36, 67.96 1.56" stroke="#1e1e1e" stroke-width="2" fill="none"></path></g><g transform="translate(735.277426614083 348.9429479017854) rotate(0 69.65947596631486 70.04226977802088)"><path d="M90.54 12.3 C84.11 9.05, 76.12 4.85, 67.96 1.56 M90.54 12.3 C82.66 8.18, 76.87 6.26, 67.96 1.56" stroke="#1e1e1e" stroke-width="2" fill="none"></path></g><g transform="translate(735.277426614083 348.9429479017854) rotate(0 69.65947596631486 70.04226977802088)"><path d="M78.35 24.3 C75.66 17.46, 71.29 9.7, 67.96 1.56 M78.35 24.3 C74.22 16.39, 72.2 10.77, 67.96 1.56" stroke="#1e1e1e" stroke-width="2" fill="none"></path></g></g><mask id="mask-UOXW7mGc6SOerd67QFcPJ"><rect x="0" y="0" fill="#fff" width="976.4749984741211" height="585.9429479017854"></rect><rect x="814.225838162142" y="462.64712951865863" fill="#000" width="55.03333282470703" height="25" opacity="1"></rect></mask><g transform="translate(814.225838162142 462.64712951865863) rotate(0 -9.28893558174434 -43.661911838852376)"><text x="27.516666412353516" y="0" font-family="Virgil, Segoe UI Emoji" font-size="20px" fill="#1e1e1e" text-anchor="middle" style="white-space: pre;" direction="ltr" dominant-baseline="text-before-edge">space</text></g><g mask="url(#mask-IPZh3BLPkWT6r8R_DXZ6k)" stroke-linecap="round"><g transform="translate(338.12829232534875 334.24485621838085) rotate(0 -42.31431933146433 57.777295057681556)"><path d="M-0.19 0.39 C-7.25 19.41, -28.95 101.8, -42.92 114.1 C-56.89 126.41, -84.11 93.12, -84.01 74.23 C-83.91 55.34, -49.25 13.03, -42.32 0.78 M-1.74 -0.44 C-8.91 18.25, -30.08 100.35, -43.86 112.47 C-57.64 124.59, -84.72 91.22, -84.44 72.27 C-84.16 53.33, -49.53 11.16, -42.2 -1.21" stroke="#1e1e1e" stroke-width="2" fill="none"></path></g><g transform="translate(338.12829232534875 334.24485621838085) rotate(0 -42.31431933146433 57.777295057681556)"><path d="M-48.56 22.97 C-46.29 16.88, -43.77 11.8, -42.2 -1.21 M-48.56 22.97 C-46.51 15.04, -44.66 5.76, -42.2 -1.21" stroke="#1e1e1e" stroke-width="2" fill="none"></path></g><g transform="translate(338.12829232534875 334.24485621838085) rotate(0 -42.31431933146433 57.777295057681556)"><path d="M-62.61 13.22 C-56.78 9.62, -50.7 7.01, -42.2 -1.21 M-62.61 13.22 C-55.51 8.7, -48.57 2.93, -42.2 -1.21" stroke="#1e1e1e" stroke-width="2" fill="none"></path></g></g><mask id="mask-IPZh3BLPkWT6r8R_DXZ6k"><rect x="0" y="0" fill="#fff" width="522.7872956502607" height="547.7140005330954"></rect><rect x="241.14380350669387" y="424.9510765571798" fill="#000" width="51.79999923706055" height="25" opacity="1"></rect></mask><g transform="translate(241.14380350669393 424.9510765571798) rotate(0 54.67016948719055 -32.928925281117415)"><text x="25.899999618530273" y="0" font-family="Virgil, Segoe UI Emoji" font-size="20px" fill="#1e1e1e" text-anchor="middle" style="white-space: pre;" direction="ltr" dominant-baseline="text-before-edge">other</text></g><g mask="url(#mask-o8vpFjZoS_ul0o9VdgOrC)" stroke-linecap="round"><g transform="translate(974.8364785570502 171.94294790178537) rotate(0 35.96526108937633 -64.58829014515123)"><path d="M0.29 -1.01 C-1.35 -19.36, -25.23 -89.63, -10.69 -109.52 C3.84 -129.41, 82.01 -138.73, 87.5 -120.36 C92.98 -102, 32.92 -19.35, 22.22 0.68 M-1.02 1.07 C-2.64 -17.15, -25.74 -88.15, -11.05 -108.17 C3.64 -128.19, 81.6 -136.8, 87.11 -119.03 C92.62 -101.25, 32.88 -21.38, 22.02 -1.51" stroke="#1e1e1e" stroke-width="2" fill="none"></path></g><g transform="translate(974.8364785570502 171.94294790178537) rotate(0 35.96526108937633 -64.58829014515123)"><path d="M27.58 -25.89 C24.74 -18.41, 24.55 -13.47, 22.02 -1.51 M27.58 -25.89 C25.92 -18.59, 24.12 -10.8, 22.02 -1.51" stroke="#1e1e1e" stroke-width="2" fill="none"></path></g><g transform="translate(974.8364785570502 171.94294790178537) rotate(0 35.96526108937633 -64.58829014515123)"><path d="M41.95 -16.61 C35.76 -11.22, 32.27 -8.42, 22.02 -1.51 M41.95 -16.61 C35.99 -12.04, 29.84 -7.06, 22.02 -1.51" stroke="#1e1e1e" stroke-width="2" fill="none"></path></g></g><mask id="mask-o8vpFjZoS_ul0o9VdgOrC"><rect x="0" y="0" fill="#fff" width="1173.418950906142" height="392.3442830025003"></rect><rect x="988.4098456966958" y="30.435805574091432" fill="#000" width="51.79999923706055" height="25" opacity="1"></rect></mask><g transform="translate(988.409845696696 30.43580557409146) rotate(0 22.391893949730502 76.91885218254268)"><text x="25.899999618530273" y="0" font-family="Virgil, Segoe UI Emoji" font-size="20px" fill="#1e1e1e" text-anchor="middle" style="white-space: pre;" direction="ltr" dominant-baseline="text-before-edge">other</text></g><g mask="url(#mask-I0oqpX3zbqSDfTLQjaY1F)" stroke-linecap="round"><g transform="translate(680.4749984741211 345.760119250514) rotate(0 -284.5 -48.75844387041059)"><path d="M-0.3 -0.32 C-69.78 23.92, -322.36 158.74, -417.13 146.59 C-511.89 134.44, -546.68 -14.19, -568.9 -73.2 C-591.13 -132.21, -566.33 -178.67, -550.47 -207.45 C-534.61 -236.23, -486.48 -239.59, -473.74 -245.89 M1.74 -1.54 C-67.8 23.36, -322.39 159.55, -417.62 147.75 C-512.84 135.96, -547.56 -12.79, -569.62 -72.32 C-591.67 -131.86, -566.23 -180.49, -549.95 -209.45 C-533.67 -238.4, -484.73 -239.89, -471.94 -246.06" stroke="#1e1e1e" stroke-width="2" fill="none"></path></g><g transform="translate(680.4749984741211 345.760119250514) rotate(0 -284.5 -48.75844387041059)"><path d="M-492.46 -231.76 C-487.45 -234.22, -482.42 -239.46, -471.94 -246.06 M-492.46 -231.76 C-488.42 -236.12, -483.97 -238.83, -471.94 -246.06" stroke="#1e1e1e" stroke-width="2" fill="none"></path></g><g transform="translate(680.4749984741211 345.760119250514) rotate(0 -284.5 -48.75844387041059)"><path d="M-496.84 -248.29 C-490.46 -246.16, -484.22 -246.83, -471.94 -246.06 M-496.84 -248.29 C-491.73 -248.89, -486.27 -247.8, -471.94 -246.06" stroke="#1e1e1e" stroke-width="2" fill="none"></path></g></g><mask id="mask-I0oqpX3zbqSDfTLQjaY1F"><rect x="0" y="0" fill="#fff" width="1349.474998474121" height="837.87757420715"></rect><rect x="10" y="260.9020137391948" fill="#000" width="202.9499969482422" height="25" opacity="1"></rect></mask><g transform="translate(10 260.9020137391948) rotate(0 382.2359378396181 36.067874813760085)"><text x="101.4749984741211" y="0" font-family="Virgil, Segoe UI Emoji" font-size="20px" fill="#1e1e1e" text-anchor="middle" style="white-space: pre;" direction="ltr" dominant-baseline="text-before-edge">newline (empty value)</text></g><g mask="url(#mask-BriV0Z1BZV1chuLDlgFs0)" stroke-linecap="round"><g transform="translate(409.4749984741211 94.9363618929255) rotate(0 271.5 12.003293004429935)"><path d="M-0.72 -13.07 C39.77 -18.95, 153.12 -62.66, 243.76 -48.41 C334.4 -34.15, 493.26 52.33, 543.13 72.46 M1.1 -14.28 C41.35 -20.48, 152.46 -64.85, 242.69 -50.22 C332.91 -35.59, 492.34 52.93, 542.43 73.49" stroke="#1e1e1e" stroke-width="2" fill="none"></path></g><g transform="translate(409.4749984741211 94.9363618929255) rotate(0 271.5 12.003293004429935)"><path d="M517.54 71.17 C526.15 71.77, 536.77 73.24, 542.43 73.49 M517.54 71.17 C524.21 71.04, 530.92 73.47, 542.43 73.49" stroke="#1e1e1e" stroke-width="2" fill="none"></path></g><g transform="translate(409.4749984741211 94.9363618929255) rotate(0 271.5 12.003293004429935)"><path d="M524.86 55.71 C530.73 61.93, 538.67 69.07, 542.43 73.49 M524.86 55.71 C529.66 59.47, 534.51 65.84, 542.43 73.49" stroke="#1e1e1e" stroke-width="2" fill="none"></path></g></g><mask id="mask-BriV0Z1BZV1chuLDlgFs0"><rect x="0" y="0" fill="#fff" width="1052.474998474121" height="316.9429479017854"></rect><rect x="526.2333297729492" y="33.436361892925504" fill="#000" width="254.48333740234375" height="25" opacity="1"></rect></mask><g transform="translate(526.2333297729492 33.436361892925504) rotate(0 154.44645155593747 71.66483954320762)"><text x="127.24166870117188" y="0" font-family="Virgil, Segoe UI Emoji" font-size="20px" fill="#1e1e1e" text-anchor="middle" style="white-space: pre;" direction="ltr" dominant-baseline="text-before-edge">other(start of key/value)</text></g></svg>