<?xml version="1.0" encoding="UTF-8" standalone="no"?>
<!DOCTYPE svg PUBLIC "-//W3C//DTD SVG 1.1//EN"
 "http://www.w3.org/Graphics/SVG/1.1/DTD/svg11.dtd">
<!-- Generated by graphviz version 2.43.0 (0)
 -->
<!-- Title: HeaderParser Pages: 1 -->
<svg width="558pt" height="305pt"
 viewBox="0.00 0.00 558.34 305.00" xmlns="http://www.w3.org/2000/svg" xmlns:xlink="http://www.w3.org/1999/xlink">
<g id="graph0" class="graph" transform="scale(1 1) rotate(0) translate(4 301)">
<title>HeaderParser</title>
<polygon fill="#0d1117" stroke="transparent" points="-4,4 -4,-301 554.34,-301 554.34,4 -4,4"/>
<!-- Line Start -->
<g id="node1" class="node">
<title>Line Start</title>
<ellipse fill="none" stroke="#4da6ff" cx="311.34" cy="-279" rx="57.69" ry="18"/>
<text text-anchor="middle" x="311.34" y="-275.3" font-family="Times,serif" font-size="14.00" fill="#fffdb8">Line Start</text>
</g>
<!-- First String -->
<g id="node2" class="node">
<title>First String</title>
<ellipse fill="none" stroke="#4da6ff" cx="245.34" cy="-192" rx="65.79" ry="18"/>
<text text-anchor="middle" x="245.34" y="-188.3" font-family="Times,serif" font-size="14.00" fill="#fffdb8">First String</text>
</g>
<!-- Line Start&#45;&gt;First String -->
<g id="edge1" class="edge">
<title>Line Start&#45;&gt;First String:e</title>
</g>
<!-- Line Start&#45;&gt;First String -->
<g id="edge5" class="edge">
<title>Line Start&#45;&gt;First String</title>
<path fill="none" stroke="#fffdb8" d="M260.29,-270.47C228.9,-264.69 192.92,-255.54 183.34,-243 174.15,-230.96 184.17,-220.07 198.64,-211.56"/>
<polygon fill="#fffdb8" stroke="#fffdb8" points="200.37,-214.6 207.57,-206.82 197.09,-208.42 200.37,-214.6"/>
<text text-anchor="middle" x="251.34" y="-231.8" font-family="Times,serif" font-size="14.00" fill="#fffdb8">other (start of key)</text>
</g>
<!-- DONE -->
<g id="node5" class="node">
<title>DONE</title>
<ellipse fill="none" stroke="#4da6ff" cx="466.34" cy="-192" rx="40.09" ry="18"/>
<text text-anchor="middle" x="466.34" y="-188.3" font-family="Times,serif" font-size="14.00" fill="#fffdb8">DONE</text>
</g>
<!-- Line Start&#45;&gt;DONE -->
<g id="edge4" class="edge">
<title>Line Start&#45;&gt;DONE</title>
<path fill="none" stroke="#fffdb8" d="M355.09,-267.16C373.53,-261.51 394.76,-253.55 412.34,-243 424.27,-235.84 435.82,-225.73 445.16,-216.47"/>
<polygon fill="#fffdb8" stroke="#fffdb8" points="447.67,-218.9 452.14,-209.3 442.65,-214.02 447.67,-218.9"/>
<text text-anchor="middle" x="459.34" y="-231.8" font-family="Times,serif" font-size="14.00" fill="#fffdb8">newline</text>
</g>
<!-- First String&#45;&gt;First String -->
<g id="edge6" class="edge">
<title>First String&#45;&gt;First String</title>
<path fill="none" stroke="#fffdb8" d="M304.73,-199.72C318.69,-199.08 328.99,-196.51 328.99,-192 328.99,-188.69 323.43,-186.42 314.96,-185.2"/>
<polygon fill="#fffdb8" stroke="#fffdb8" points="315.01,-181.69 304.73,-184.28 314.38,-188.66 315.01,-181.69"/>
<text text-anchor="middle" x="348.49" y="-188.3" font-family="Times,serif" font-size="14.00" fill="#fffdb8">other</text>
</g>
<!-- After Key -->
<g id="node3" class="node">
<title>After Key</title>
<ellipse fill="none" stroke="#4da6ff" cx="257.34" cy="-105" rx="53.89" ry="18"/>
<text text-anchor="middle" x="257.34" y="-101.3" font-family="Times,serif" font-size="14.00" fill="#fffdb8">After Key</text>
</g>
<!-- First String&#45;&gt;After Key -->
<g id="edge2" class="edge">
<title>First String:e&#45;&gt;After Key:e</title>
</g>
<!-- First String&#45;&gt;After Key -->
<g id="edge7" class="edge">
<title>First String&#45;&gt;After Key</title>
<path fill="none" stroke="#fffdb8" d="M222.19,-174.71C211.86,-165.31 203.23,-153.01 209.34,-141 212.1,-135.58 216.13,-130.8 220.7,-126.66"/>
<polygon fill="#fffdb8" stroke="#fffdb8" points="223.1,-129.22 228.78,-120.27 218.76,-123.73 223.1,-129.22"/>
<text text-anchor="middle" x="272.84" y="-144.8" font-family="Times,serif" font-size="14.00" fill="#fffdb8">colon (end of key)</text>
</g>
<!-- After Key&#45;&gt;Line Start -->
<g id="edge8" class="edge">
<title>After Key&#45;&gt;Line Start</title>
<path fill="none" stroke="#fffdb8" d="M205.07,-109.51C117.65,-117.34 -43.5,-141.34 11.34,-210 40.09,-245.99 166.31,-264.35 245.59,-272.5"/>
<polygon fill="#fffdb8" stroke="#fffdb8" points="245.68,-276.03 255.98,-273.54 246.37,-269.06 245.68,-276.03"/>
<text text-anchor="middle" x="90.84" y="-188.3" font-family="Times,serif" font-size="14.00" fill="#fffdb8">newline (empty value)</text>
</g>
<!-- After Key&#45;&gt;After Key -->
<g id="edge9" class="edge">
<title>After Key&#45;&gt;After Key</title>
<path fill="none" stroke="#fffdb8" d="M306.1,-112.82C319.27,-112.4 329.29,-109.8 329.29,-105 329.29,-101.55 324.11,-99.23 316.31,-98.05"/>
<polygon fill="#fffdb8" stroke="#fffdb8" points="316.36,-94.54 306.1,-97.18 315.77,-101.52 316.36,-94.54"/>
<text text-anchor="middle" x="349.79" y="-101.3" font-family="Times,serif" font-size="14.00" fill="#fffdb8">space</text>
</g>
<!-- During Value -->
<g id="node4" class="node">
<title>During Value</title>
<ellipse fill="none" stroke="#4da6ff" cx="239.34" cy="-18" rx="71.49" ry="18"/>
<text text-anchor="middle" x="239.34" y="-14.3" font-family="Times,serif" font-size="14.00" fill="#fffdb8">During Value</text>
</g>
<!-- After Key&#45;&gt;During Value -->
<g id="edge3" class="edge">
<title>After Key:e&#45;&gt;During Value:e</title>
</g>
<!-- After Key&#45;&gt;During Value -->
<g id="edge10" class="edge">
<title>After Key&#45;&gt;During Value</title>
<path fill="none" stroke="#fffdb8" d="M217.16,-92.91C205.52,-87.63 194.13,-79.98 187.34,-69 180.67,-58.2 187.43,-48.11 198.05,-39.86"/>
<polygon fill="#fffdb8" stroke="#fffdb8" points="200.04,-42.74 206.31,-34.2 196.09,-36.96 200.04,-42.74"/>
<text text-anchor="middle" x="261.84" y="-57.8" font-family="Times,serif" font-size="14.00" fill="#fffdb8">other (start of value)</text>
</g>
<!-- During Value&#45;&gt;Line Start -->
<g id="edge11" class="edge">
<title>During Value&#45;&gt;Line Start</title>
<path fill="none" stroke="#fffdb8" d="M299.19,-27.9C331.95,-36.56 368.11,-53.57 379.34,-87 396.76,-138.83 398.47,-159.57 377.34,-210 369.79,-228.01 355.06,-243.94 341.42,-255.84"/>
<polygon fill="#fffdb8" stroke="#fffdb8" points="339.02,-253.29 333.58,-262.37 343.5,-258.66 339.02,-253.29"/>
<text text-anchor="middle" x="471.34" y="-144.8" font-family="Times,serif" font-size="14.00" fill="#fffdb8">newline (end of value)</text>
</g>
<!-- During Value&#45;&gt;During Value -->
<g id="edge12" class="edge">
<title>During Value&#45;&gt;During Value</title>
<path fill="none" stroke="#fffdb8" d="M304.1,-25.66C318.41,-24.94 328.83,-22.39 328.83,-18 328.83,-14.74 323.09,-12.5 314.28,-11.26"/>
<polygon fill="#fffdb8" stroke="#fffdb8" points="314.38,-7.75 304.1,-10.34 313.74,-14.73 314.38,-7.75"/>
<text text-anchor="middle" x="348.33" y="-14.3" font-family="Times,serif" font-size="14.00" fill="#fffdb8">other</text>
</g>
</g>
</svg>
