<?xml version="1.0" encoding="UTF-8" standalone="no"?>
<!DOCTYPE svg PUBLIC "-//W3C//DTD SVG 1.1//EN"
 "http://www.w3.org/Graphics/SVG/1.1/DTD/svg11.dtd">
<!-- Generated by graphviz version 2.43.0 (0)
 -->
<!-- Title: HeaderParser Pages: 1 -->
<svg width="720pt" height="392pt"
 viewBox="0.00 0.00 720.18 392.00" xmlns="http://www.w3.org/2000/svg" xmlns:xlink="http://www.w3.org/1999/xlink">
<g id="graph0" class="graph" transform="scale(1 1) rotate(0) translate(4 388)">
<title>HeaderParser</title>
<polygon fill="#0d1117" stroke="transparent" points="-4,4 -4,-388 716.18,-388 716.18,4 -4,4"/>
<!-- Line Start -->
<g id="node1" class="node">
<title>Line Start</title>
<ellipse fill="none" stroke="#4da6ff" cx="468.89" cy="-366" rx="57.69" ry="18"/>
<text text-anchor="middle" x="468.89" y="-362.3" font-family="Times,serif" font-size="14.00" fill="#fffdb8">Line Start</text>
</g>
<!-- First String -->
<g id="node2" class="node">
<title>First String</title>
<ellipse fill="none" stroke="#4da6ff" cx="402.89" cy="-279" rx="65.79" ry="18"/>
<text text-anchor="middle" x="402.89" y="-275.3" font-family="Times,serif" font-size="14.00" fill="#fffdb8">First String</text>
</g>
<!-- Line Start&#45;&gt;First String -->
<g id="edge1" class="edge">
<title>Line Start&#45;&gt;First String:e</title>
</g>
<!-- Line Start&#45;&gt;First String -->
<g id="edge6" class="edge">
<title>Line Start&#45;&gt;First String</title>
<path fill="none" stroke="#fffdb8" d="M417.83,-357.47C386.45,-351.69 350.46,-342.54 340.89,-330 331.7,-317.96 341.72,-307.07 356.19,-298.56"/>
<polygon fill="#fffdb8" stroke="#fffdb8" points="357.92,-301.6 365.12,-293.82 354.64,-295.42 357.92,-301.6"/>
<text text-anchor="middle" x="408.89" y="-318.8" font-family="Times,serif" font-size="14.00" fill="#fffdb8">other (start of key)</text>
</g>
<!-- DONE -->
<g id="node6" class="node">
<title>DONE</title>
<ellipse fill="none" stroke="#4da6ff" cx="671.89" cy="-279" rx="40.09" ry="18"/>
<text text-anchor="middle" x="671.89" y="-275.3" font-family="Times,serif" font-size="14.00" fill="#fffdb8">DONE</text>
</g>
<!-- Line Start&#45;&gt;DONE -->
<g id="edge5" class="edge">
<title>Line Start&#45;&gt;DONE</title>
<path fill="none" stroke="#fffdb8" d="M522.62,-359.2C552.06,-354.38 588.45,-345.66 617.89,-330 630.35,-323.37 642.11,-313.15 651.46,-303.68"/>
<polygon fill="#fffdb8" stroke="#fffdb8" points="654.08,-306 658.4,-296.32 648.99,-301.19 654.08,-306"/>
<text text-anchor="middle" x="666.89" y="-318.8" font-family="Times,serif" font-size="14.00" fill="#fffdb8">newline</text>
</g>
<!-- First String&#45;&gt;First String -->
<g id="edge7" class="edge">
<title>First String&#45;&gt;First String</title>
<path fill="none" stroke="#fffdb8" d="M462.28,-286.72C476.24,-286.08 486.53,-283.51 486.53,-279 486.53,-275.69 480.98,-273.42 472.5,-272.2"/>
<polygon fill="#fffdb8" stroke="#fffdb8" points="472.55,-268.69 462.28,-271.28 471.93,-275.66 472.55,-268.69"/>
<text text-anchor="middle" x="506.03" y="-275.3" font-family="Times,serif" font-size="14.00" fill="#fffdb8">other</text>
</g>
<!-- After Key -->
<g id="node3" class="node">
<title>After Key</title>
<ellipse fill="none" stroke="#4da6ff" cx="414.89" cy="-192" rx="53.89" ry="18"/>
<text text-anchor="middle" x="414.89" y="-188.3" font-family="Times,serif" font-size="14.00" fill="#fffdb8">After Key</text>
</g>
<!-- First String&#45;&gt;After Key -->
<g id="edge2" class="edge">
<title>First String:e&#45;&gt;After Key:e</title>
</g>
<!-- First String&#45;&gt;After Key -->
<g id="edge8" class="edge">
<title>First String&#45;&gt;After Key</title>
<path fill="none" stroke="#fffdb8" d="M379.74,-261.71C369.41,-252.31 360.78,-240.01 366.89,-228 369.64,-222.58 373.67,-217.8 378.25,-213.66"/>
<polygon fill="#fffdb8" stroke="#fffdb8" points="380.65,-216.22 386.32,-207.27 376.31,-210.73 380.65,-216.22"/>
<text text-anchor="middle" x="430.39" y="-231.8" font-family="Times,serif" font-size="14.00" fill="#fffdb8">colon (end of key)</text>
</g>
<!-- After Key&#45;&gt;Line Start -->
<g id="edge9" class="edge">
<title>After Key&#45;&gt;Line Start</title>
<path fill="none" stroke="#fffdb8" d="M362.61,-196.51C275.19,-204.34 114.05,-228.34 168.89,-297 197.63,-332.99 323.86,-351.35 403.14,-359.5"/>
<polygon fill="#fffdb8" stroke="#fffdb8" points="403.22,-363.03 413.52,-360.54 403.92,-356.06 403.22,-363.03"/>
<text text-anchor="middle" x="248.39" y="-275.3" font-family="Times,serif" font-size="14.00" fill="#fffdb8">newline (empty value)</text>
</g>
<!-- After Key&#45;&gt;After Key -->
<g id="edge10" class="edge">
<title>After Key&#45;&gt;After Key</title>
<path fill="none" stroke="#fffdb8" d="M463.65,-199.82C476.81,-199.4 486.83,-196.8 486.83,-192 486.83,-188.55 481.66,-186.23 473.86,-185.05"/>
<polygon fill="#fffdb8" stroke="#fffdb8" points="473.91,-181.54 463.65,-184.18 473.31,-188.52 473.91,-181.54"/>
<text text-anchor="middle" x="527.33" y="-188.3" font-family="Times,serif" font-size="14.00" fill="#fffdb8">whitespace</text>
</g>
<!-- During Value -->
<g id="node4" class="node">
<title>During Value</title>
<ellipse fill="none" stroke="#4da6ff" cx="396.89" cy="-105" rx="71.49" ry="18"/>
<text text-anchor="middle" x="396.89" y="-101.3" font-family="Times,serif" font-size="14.00" fill="#fffdb8">During Value</text>
</g>
<!-- After Key&#45;&gt;During Value -->
<g id="edge3" class="edge">
<title>After Key:e&#45;&gt;During Value:e</title>
</g>
<!-- After Key&#45;&gt;During Value -->
<g id="edge11" class="edge">
<title>After Key&#45;&gt;During Value</title>
<path fill="none" stroke="#fffdb8" d="M374.7,-179.91C363.06,-174.63 351.67,-166.98 344.89,-156 338.21,-145.2 344.98,-135.11 355.59,-126.86"/>
<polygon fill="#fffdb8" stroke="#fffdb8" points="357.59,-129.74 363.86,-121.2 353.63,-123.96 357.59,-129.74"/>
<text text-anchor="middle" x="419.39" y="-144.8" font-family="Times,serif" font-size="14.00" fill="#fffdb8">other (start of value)</text>
</g>
<!-- During Value&#45;&gt;Line Start -->
<g id="edge12" class="edge">
<title>During Value&#45;&gt;Line Start</title>
<path fill="none" stroke="#fffdb8" d="M325.38,-105.78C195.41,-108.18 -59.71,-127.28 12.89,-243 60.11,-318.27 107.7,-304.75 192.89,-330 262.2,-350.55 344.82,-359.03 401.48,-362.54"/>
<polygon fill="#fffdb8" stroke="#fffdb8" points="401.57,-366.05 411.75,-363.13 401.97,-359.06 401.57,-366.05"/>
<text text-anchor="middle" x="91.89" y="-231.8" font-family="Times,serif" font-size="14.00" fill="#fffdb8">newline (end of value)</text>
</g>
<!-- During Value&#45;&gt;During Value -->
<g id="edge13" class="edge">
<title>During Value&#45;&gt;During Value</title>
<path fill="none" stroke="#fffdb8" d="M461.65,-112.66C475.96,-111.94 486.38,-109.39 486.38,-105 486.38,-101.74 480.64,-99.5 471.83,-98.26"/>
<polygon fill="#fffdb8" stroke="#fffdb8" points="471.92,-94.75 461.65,-97.34 471.29,-101.73 471.92,-94.75"/>
<text text-anchor="middle" x="505.88" y="-101.3" font-family="Times,serif" font-size="14.00" fill="#fffdb8">other</text>
</g>
<!-- After Value -->
<g id="node5" class="node">
<title>After Value</title>
<ellipse fill="none" stroke="#4da6ff" cx="405.89" cy="-18" rx="62.29" ry="18"/>
<text text-anchor="middle" x="405.89" y="-14.3" font-family="Times,serif" font-size="14.00" fill="#fffdb8">After Value</text>
</g>
<!-- During Value&#45;&gt;After Value -->
<g id="edge4" class="edge">
<title>During Value:e&#45;&gt;After Value:e</title>
</g>
<!-- During Value&#45;&gt;After Value -->
<g id="edge14" class="edge">
<title>During Value&#45;&gt;After Value</title>
<path fill="none" stroke="#fffdb8" d="M344.69,-92.69C319.91,-84.73 298.19,-72.2 310.89,-54 318.42,-43.2 329.68,-35.72 341.83,-30.55"/>
<polygon fill="#fffdb8" stroke="#fffdb8" points="343.12,-33.81 351.26,-27.03 340.67,-27.25 343.12,-33.81"/>
<text text-anchor="middle" x="402.39" y="-57.8" font-family="Times,serif" font-size="14.00" fill="#fffdb8">whitespace (end of value)</text>
</g>
<!-- After Value&#45;&gt;Line Start -->
<g id="edge16" class="edge">
<title>After Value&#45;&gt;Line Start</title>
<path fill="none" stroke="#fffdb8" d="M467.72,-20.57C525.82,-25.74 603.89,-43.87 603.89,-104 603.89,-280 603.89,-280 603.89,-280 603.89,-319.15 562.72,-340.98 525.85,-352.69"/>
<polygon fill="#fffdb8" stroke="#fffdb8" points="524.69,-349.38 516.1,-355.58 526.69,-356.09 524.69,-349.38"/>
<text text-anchor="middle" x="631.89" y="-188.3" font-family="Times,serif" font-size="14.00" fill="#fffdb8">newline</text>
</g>
<!-- After Value&#45;&gt;After Value -->
<g id="edge15" class="edge">
<title>After Value&#45;&gt;After Value</title>
<path fill="none" stroke="#fffdb8" d="M462.24,-25.75C476.02,-25.18 486.28,-22.59 486.28,-18 486.28,-14.63 480.75,-12.34 472.35,-11.13"/>
<polygon fill="#fffdb8" stroke="#fffdb8" points="472.51,-7.63 462.24,-10.25 471.9,-14.6 472.51,-7.63"/>
<text text-anchor="middle" x="526.78" y="-14.3" font-family="Times,serif" font-size="14.00" fill="#fffdb8">whitespace</text>
</g>
</g>
</svg>
