<svg version="1.1" xmlns="http://www.w3.org/2000/svg" viewBox="0 0 1033.8618040427566 547.8790233731311" width="1033.8618040427566" height="547.8790233731311" filter="invert(93%) hue-rotate(180deg)">
  <!-- svg-source:excalidraw -->
  
  <defs>
    <style class="style-fonts">
      @font-face {
        font-family: "Virgil";
        src: url("https://excalidraw.com/Virgil.woff2");
      }
      @font-face {
        font-family: "Cascadia";
        src: url("https://excalidraw.com/Cascadia.woff2");
      }
      @font-face {
        font-family: "Assistant";
        src: url("https://excalidraw.com/Assistant-Regular.woff2");
      }
    </style>
    
  </defs>
  <rect x="0" y="0" width="1033.8618040427566" height="547.8790233731311" fill="#ffffff"></rect><g stroke-linecap="round" transform="translate(114.86180404275655 72.94294790178537) rotate(0 99 31)"><path d="M15.5 0 C55.08 0.11, 92.04 -0.77, 182.5 0 M15.5 0 C55.05 -1.08, 95.22 -0.93, 182.5 0 M182.5 0 C192.69 -1.16, 198.73 3.63, 198 15.5 M182.5 0 C194.63 0.73, 197.21 6.98, 198 15.5 M198 15.5 C197.45 25.97, 195.94 35.8, 198 46.5 M198 15.5 C197.13 25.65, 197.65 36.11, 198 46.5 M198 46.5 C196.89 55.5, 193.86 60.08, 182.5 62 M198 46.5 C197.13 58.17, 192.97 61.26, 182.5 62 M182.5 62 C130.52 61.97, 75.53 60.51, 15.5 62 M182.5 62 C138.16 63, 92.77 62.32, 15.5 62 M15.5 62 C5 61.89, -1.24 57.99, 0 46.5 M15.5 62 C6.82 63.45, -1.38 57.05, 0 46.5 M0 46.5 C-0.7 37.17, 1.53 27.47, 0 15.5 M0 46.5 C-0.46 34.77, 0.82 22.47, 0 15.5 M0 15.5 C1.93 7.15, 4.53 -1.18, 15.5 0 M0 15.5 C2.29 6.93, 5.02 -0.17, 15.5 0" stroke="#1e1e1e" stroke-width="2" fill="none"></path></g><g transform="translate(147.64513686746358 78.94294790178537) rotate(0 66.21666717529297 25)"><text x="66.21666717529297" y="0" font-family="Virgil, Segoe UI Emoji" font-size="20px" fill="#1e1e1e" text-anchor="middle" style="white-space: pre;" direction="ltr" dominant-baseline="text-before-edge">Before First </text><text x="66.21666717529297" y="25" font-family="Virgil, Segoe UI Emoji" font-size="20px" fill="#1e1e1e" text-anchor="middle" style="white-space: pre;" direction="ltr" dominant-baseline="text-before-edge">Space</text></g><g stroke-linecap="round" transform="translate(451.86180404275655 124.94294790178537) rotate(0 66.5 25)"><path d="M12.5 0 C43.14 -0.71, 71.46 -2.38, 120.5 0 M12.5 0 C54.61 -0.19, 96.38 1.24, 120.5 0 M120.5 0 C129.53 -1.6, 132.96 6.16, 133 12.5 M120.5 0 C130.93 0.92, 134.24 3.41, 133 12.5 M133 12.5 C133.19 21.58, 132.51 29.06, 133 37.5 M133 12.5 C133.97 19.15, 133.86 24.94, 133 37.5 M133 37.5 C134.39 44.93, 128.72 51.78, 120.5 50 M133 37.5 C134.6 45.7, 130.6 52.22, 120.5 50 M120.5 50 C90.06 50.8, 55.56 50.28, 12.5 50 M120.5 50 C81.86 51.59, 41.63 50.97, 12.5 50 M12.5 50 C5.18 49.77, 0.04 44.78, 0 37.5 M12.5 50 C6.19 50.11, 1.63 46.96, 0 37.5 M0 37.5 C0.73 30.76, 1.01 26.63, 0 12.5 M0 37.5 C-0.87 32.36, -1.03 26.41, 0 12.5 M0 12.5 C0.4 2.82, 4.84 -1.8, 12.5 0 M0 12.5 C0.98 2.24, 2.53 -0.77, 12.5 0" stroke="#1e1e1e" stroke-width="2" fill="none"></path></g><g transform="translate(464.1701383933425 137.44294790178537) rotate(0 54.19166564941406 12.5)"><text x="54.19166564941406" y="0" font-family="Virgil, Segoe UI Emoji" font-size="20px" fill="#1e1e1e" text-anchor="middle" style="white-space: pre;" direction="ltr" dominant-baseline="text-before-edge">Before Key</text></g><g stroke-linecap="round" transform="translate(898.8618040427566 155.94294790178537) rotate(0 62.5 27)"><path d="M13.5 0 C52.08 1.11, 87.75 0.36, 111.5 0 M13.5 0 C37.38 -0.15, 61.85 0.73, 111.5 0 M111.5 0 C119.55 -0.3, 126.72 4, 125 13.5 M111.5 0 C120 1.5, 124.83 3.31, 125 13.5 M125 13.5 C123.23 23.66, 123.92 30.37, 125 40.5 M125 13.5 C124.95 20.41, 124.31 26.68, 125 40.5 M125 40.5 C123.03 47.92, 121.31 52.71, 111.5 54 M125 40.5 C127.15 49.6, 119.36 52.88, 111.5 54 M111.5 54 C82.5 52.02, 49 53.57, 13.5 54 M111.5 54 C89.7 55.51, 68.23 54.72, 13.5 54 M13.5 54 C5.72 52.76, -0.86 48.22, 0 40.5 M13.5 54 C4.85 55.6, -1.99 50.23, 0 40.5 M0 40.5 C-0.25 29.84, 1.04 22.75, 0 13.5 M0 40.5 C0.66 33.52, -0.19 25.93, 0 13.5 M0 13.5 C1.4 5.65, 2.96 -0.85, 13.5 0 M0 13.5 C-0.78 2.52, 2.82 0.59, 13.5 0" stroke="#1e1e1e" stroke-width="2" fill="none"></path></g><g transform="translate(905.1451368674636 170.44294790178537) rotate(0 56.21666717529297 12.5)"><text x="56.21666717529297" y="0" font-family="Virgil, Segoe UI Emoji" font-size="20px" fill="#1e1e1e" text-anchor="middle" style="white-space: pre;" direction="ltr" dominant-baseline="text-before-edge">First String</text></g><g stroke-linecap="round" transform="translate(589.3618040427566 375.4429479017854) rotate(0 62 17.5)"><path d="M8.75 0 C36.32 -1.35, 61.39 0.94, 115.25 0 M8.75 0 C43.24 -0.53, 75.41 1.28, 115.25 0 M115.25 0 C119.32 0.18, 125.51 4.49, 124 8.75 M115.25 0 C121.67 1.12, 123.43 4.07, 124 8.75 M124 8.75 C124.05 15.5, 124.9 21.28, 124 26.25 M124 8.75 C123.49 14.32, 124.28 18.84, 124 26.25 M124 26.25 C122.17 30.19, 121.46 34.67, 115.25 35 M124 26.25 C123.72 31.23, 121.76 35.7, 115.25 35 M115.25 35 C72.37 35.08, 29.04 36.67, 8.75 35 M115.25 35 C85.92 36.44, 57.99 36.25, 8.75 35 M8.75 35 C3.93 36.44, 1.31 30.09, 0 26.25 M8.75 35 C1.28 33.44, -1.91 30.89, 0 26.25 M0 26.25 C-1.61 21.54, -0.47 15.97, 0 8.75 M0 26.25 C-0.54 21.26, 0.15 17.57, 0 8.75 M0 8.75 C0.28 2.09, 3.19 -0.75, 8.75 0 M0 8.75 C1.27 4.92, 1.56 0.99, 8.75 0" stroke="#1e1e1e" stroke-width="2" fill="none"></path></g><g transform="translate(603.2368040427566 380.4429479017854) rotate(0 48.125 12.5)"><text x="48.125" y="0" font-family="Virgil, Segoe UI Emoji" font-size="20px" fill="#1e1e1e" text-anchor="middle" style="white-space: pre;" direction="ltr" dominant-baseline="text-before-edge">After Key</text></g><g stroke-linecap="round" transform="translate(217.36180404275655 414.4429479017854) rotate(0 71 25)"><path d="M12.5 0 C46.22 -0.56, 80.94 -0.72, 129.5 0 M12.5 0 C40.54 0.06, 66.43 0.6, 129.5 0 M129.5 0 C138.44 -1.46, 141.6 5.22, 142 12.5 M129.5 0 C139.15 -1.31, 143.19 3.65, 142 12.5 M142 12.5 C141.5 20.01, 141.69 29.36, 142 37.5 M142 12.5 C141.42 17, 142.48 23.05, 142 37.5 M142 37.5 C143.55 47.05, 137.62 50.3, 129.5 50 M142 37.5 C144.16 46.21, 138.54 51.19, 129.5 50 M129.5 50 C102.72 48.55, 76.64 50.17, 12.5 50 M129.5 50 C90.95 49.1, 52.16 48.33, 12.5 50 M12.5 50 C5.47 49.64, -0.77 47.16, 0 37.5 M12.5 50 C3.75 50.77, 1.83 46.13, 0 37.5 M0 37.5 C0.45 29.59, -1.47 17.97, 0 12.5 M0 37.5 C-0.46 28.09, -0.48 18.82, 0 12.5 M0 12.5 C0.47 5.37, 6.14 0.22, 12.5 0 M0 12.5 C-0.38 2.9, 4.34 1.64, 12.5 0" stroke="#1e1e1e" stroke-width="2" fill="none"></path></g><g transform="translate(228.09513763040303 426.9429479017854) rotate(0 60.266666412353516 12.5)"><text x="60.266666412353516" y="0" font-family="Virgil, Segoe UI Emoji" font-size="20px" fill="#1e1e1e" text-anchor="middle" style="white-space: pre;" direction="ltr" dominant-baseline="text-before-edge">During Value</text></g><g stroke-linecap="round" transform="translate(371.86180404275655 209.94294790178537) rotate(0 37.5 17.5)"><path d="M8.75 0 C24.04 -0.85, 40.8 -0.34, 66.25 0 M8.75 0 C21.47 0.42, 34.61 0.65, 66.25 0 M66.25 0 C72.29 1.02, 74.2 3.1, 75 8.75 M66.25 0 C70.22 1.87, 73.67 2.37, 75 8.75 M75 8.75 C76.34 14.46, 75.49 23.91, 75 26.25 M75 8.75 C74.23 13.03, 74.56 18.04, 75 26.25 M75 26.25 C75.66 33.33, 71.94 35.06, 66.25 35 M75 26.25 C73.42 31.34, 71.9 35.75, 66.25 35 M66.25 35 C54.61 33.68, 39.86 34.46, 8.75 35 M66.25 35 C43.47 35.66, 22.13 34.86, 8.75 35 M8.75 35 C4.63 35.27, 1.91 33.38, 0 26.25 M8.75 35 C1.38 34.74, 2.14 31.35, 0 26.25 M0 26.25 C-0.62 20.72, -0.09 14.32, 0 8.75 M0 26.25 C0.55 21.75, 0.09 16.22, 0 8.75 M0 8.75 C1.74 4.26, 4.86 1.06, 8.75 0 M0 8.75 C-1.11 3.2, 1.93 -0.66, 8.75 0" stroke="#1e1e1e" stroke-width="2" fill="none"></path></g><g transform="translate(381.1201372489333 214.94294790178537) rotate(0 28.241666793823242 12.5)"><text x="28.241666793823242" y="0" font-family="Virgil, Segoe UI Emoji" font-size="20px" fill="#1e1e1e" text-anchor="middle" style="white-space: pre;" direction="ltr" dominant-baseline="text-before-edge">DONE</text></g><g mask="url(#mask-OrnvzGSdx3ZIBZqWngfBb)" stroke-linecap="round"><g transform="translate(260.45379689529216 136.94294790178537) rotate(0 55.706041480973596 36)"><path d="M0.6 -0.82 C19.17 11.1, 92.85 59.27, 111.3 71.45 M-0.54 1.36 C17.87 13.44, 91.79 60.64, 110.3 72.7" stroke="#1e1e1e" stroke-width="2" fill="none"></path></g><g transform="translate(260.45379689529216 136.94294790178537) rotate(0 55.706041480973596 36)"><path d="M85.92 67.16 C91.69 68.48, 99.3 70.16, 110.3 72.7 M85.92 67.16 C93.49 69.86, 102.41 71.62, 110.3 72.7" stroke="#1e1e1e" stroke-width="2" fill="none"></path></g><g transform="translate(260.45379689529216 136.94294790178537) rotate(0 55.706041480973596 36)"><path d="M95.18 52.79 C98.23 58.37, 103.12 64.26, 110.3 72.7 M95.18 52.79 C99.64 60.1, 105.58 66.48, 110.3 72.7" stroke="#1e1e1e" stroke-width="2" fill="none"></path></g></g><mask id="mask-OrnvzGSdx3ZIBZqWngfBb"><rect x="0" y="0" fill="#fff" width="471.86587985723935" height="308.9429479017854"></rect><rect x="284.9765059330285" y="160.44294790178537" fill="#000" width="62.36666488647461" height="25" opacity="1"></rect></mask><g transform="translate(284.97650593302853 160.44294790178537) rotate(0 30.861208258033713 12.436465910240074)"><text x="31.183332443237305" y="0" font-family="Virgil, Segoe UI Emoji" font-size="20px" fill="#1e1e1e" text-anchor="middle" style="white-space: pre;" direction="ltr" dominant-baseline="text-before-edge">newline</text></g><g mask="url(#mask-Drhna3_DTfNCSE6LEm0Yx)" stroke-linecap="round"><g transform="translate(313.86180404275655 121.39921072110988) rotate(0 68.5 10.678711006514604)"><path d="M-0.22 -0.7 C22.45 2.78, 113.45 18.23, 136.21 21.8 M-1.8 1.54 C21.24 4.58, 115.67 16.55, 138.5 19.91" stroke="#1e1e1e" stroke-width="2" fill="none"></path></g><g transform="translate(313.86180404275655 121.39921072110988) rotate(0 68.5 10.678711006514604)"><path d="M114.07 25.23 C120.53 22.28, 130.12 20.8, 138.5 19.91 M114.07 25.23 C119.39 22.74, 126.74 22.08, 138.5 19.91" stroke="#1e1e1e" stroke-width="2" fill="none"></path></g><g transform="translate(313.86180404275655 121.39921072110988) rotate(0 68.5 10.678711006514604)"><path d="M116.37 8.28 C122.23 10.65, 131.1 14.5, 138.5 19.91 M116.37 8.28 C121.08 9.99, 127.86 13.5, 138.5 19.91" stroke="#1e1e1e" stroke-width="2" fill="none"></path></g></g><mask id="mask-Drhna3_DTfNCSE6LEm0Yx"><rect x="0" y="0" fill="#fff" width="550.8618040427566" height="242.7566327341391"></rect><rect x="354.8451376304031" y="119.57792172762444" fill="#000" width="55.03333282470703" height="25" opacity="1"></rect></mask><g transform="translate(354.8451376304031 119.57792172762447) rotate(0 27.3693074201513 12.367656888067742)"><text x="27.516666412353516" y="0" font-family="Virgil, Segoe UI Emoji" font-size="20px" fill="#1e1e1e" text-anchor="middle" style="white-space: pre;" direction="ltr" dominant-baseline="text-before-edge">space</text></g><g mask="url(#mask-ACTrfo9EYquOD0OxM3PD8)" stroke-linecap="round"><g transform="translate(521.8618040427566 123.94294790178537) rotate(0 22.74620877932597 -33.40598333971501)"><path d="M-0.06 0.51 C10.67 -9.64, 68.19 -52.29, 65.35 -61.9 C62.52 -71.51, -4.56 -67.35, -17.07 -57.15 C-29.58 -46.95, -10.99 -10.19, -9.71 -0.69 M-1.54 -0.27 C9.49 -10.11, 70.45 -51.04, 67.72 -60.31 C65 -69.58, -4.95 -65.97, -17.88 -55.91 C-30.8 -45.85, -11.59 -9.3, -9.84 0.05" stroke="#1e1e1e" stroke-width="2" fill="none"></path></g><g transform="translate(521.8618040427566 123.94294790178537) rotate(0 22.74620877932597 -33.40598333971501)"><path d="M-25.6 -19.36 C-18.89 -13, -13.53 -4.6, -9.84 0.05 M-25.6 -19.36 C-21.52 -13.81, -15.93 -8.59, -9.84 0.05" stroke="#1e1e1e" stroke-width="2" fill="none"></path></g><g transform="translate(521.8618040427566 123.94294790178537) rotate(0 22.74620877932597 -33.40598333971501)"><path d="M-9.44 -24.95 C-8.96 -16.45, -9.79 -5.92, -9.84 0.05 M-9.44 -24.95 C-10.03 -17.88, -9.09 -11.06, -9.84 0.05" stroke="#1e1e1e" stroke-width="2" fill="none"></path></g></g><mask id="mask-ACTrfo9EYquOD0OxM3PD8"><rect x="0" y="0" fill="#fff" width="704.8618040427566" height="285.9429479017854"></rect><rect x="516.711523768709" y="44.8761974918508" fill="#000" width="55.03333282470703" height="25" opacity="1"></rect></mask><g transform="translate(516.7115237687091 44.87619749185079) rotate(0 27.8964890533735 45.66076707021958)"><text x="27.516666412353516" y="0" font-family="Virgil, Segoe UI Emoji" font-size="20px" fill="#1e1e1e" text-anchor="middle" style="white-space: pre;" direction="ltr" dominant-baseline="text-before-edge">space</text></g><g mask="url(#mask-I50M4NMrbte8y9pyf_3Rc)" stroke-linecap="round"><g transform="translate(586.8618040427566 145.7118940718705) rotate(0 155.99999999999994 17.133811702774523)"><path d="M0.48 0.7 C52.82 6.58, 261.33 28.53, 313.1 34.1 M-0.73 0.02 C51.64 6.19, 260.36 29.65, 312.74 35.55" stroke="#1e1e1e" stroke-width="2" fill="none"></path></g><g transform="translate(586.8618040427566 145.7118940718705) rotate(0 155.99999999999994 17.133811702774523)"><path d="M288.43 41.42 C295.03 41.86, 298.95 37.22, 312.74 35.55 M288.43 41.42 C296.25 38.68, 301.9 38.32, 312.74 35.55" stroke="#1e1e1e" stroke-width="2" fill="none"></path></g><g transform="translate(586.8618040427566 145.7118940718705) rotate(0 155.99999999999994 17.133811702774523)"><path d="M290.35 24.42 C296.35 28.63, 299.86 27.75, 312.74 35.55 M290.35 24.42 C297.66 26.61, 302.75 31.17, 312.74 35.55" stroke="#1e1e1e" stroke-width="2" fill="none"></path></g></g><mask id="mask-I50M4NMrbte8y9pyf_3Rc"><rect x="0" y="0" fill="#fff" width="998.8618040427565" height="279.97951747741956"></rect><rect x="659.7118025168776" y="137.84570577464498" fill="#000" width="166.3000030517578" height="50" opacity="1"></rect></mask><g transform="translate(659.7118025168777 137.845705774645) rotate(0 83.3395758835087 25.648111246703195)"><text x="83.1500015258789" y="0" font-family="Virgil, Segoe UI Emoji" font-size="20px" fill="#1e1e1e" text-anchor="middle" style="white-space: pre;" direction="ltr" dominant-baseline="text-before-edge">other (start of </text><text x="83.1500015258789" y="25" font-family="Virgil, Segoe UI Emoji" font-size="20px" fill="#1e1e1e" text-anchor="middle" style="white-space: pre;" direction="ltr" dominant-baseline="text-before-edge">key/value)</text></g><g mask="url(#mask-ZFb4usm0xwkhzw8EhTkRb)" stroke-linecap="round"><g transform="translate(958.5383817802565 210.94294790178537) rotate(0 -153.81336103088051 80.5)"><path d="M-1.18 0.82 C-52.47 27.56, -255.87 134.01, -306.99 160.55 M0.4 0.21 C-51.06 27.09, -256.07 135.06, -307.61 161.86" stroke="#1e1e1e" stroke-width="2" fill="none"></path></g><g transform="translate(958.5383817802565 210.94294790178537) rotate(0 -153.81336103088051 80.5)"><path d="M-290.77 143.38 C-295.46 150.95, -303.67 156.06, -307.61 161.86 M-290.77 143.38 C-293.96 147.06, -299.01 151.02, -307.61 161.86" stroke="#1e1e1e" stroke-width="2" fill="none"></path></g><g transform="translate(958.5383817802565 210.94294790178537) rotate(0 -153.81336103088051 80.5)"><path d="M-282.83 158.53 C-290.41 160.54, -301.49 160.17, -307.61 161.86 M-282.83 158.53 C-287.9 158.78, -294.75 159.31, -307.61 161.86" stroke="#1e1e1e" stroke-width="2" fill="none"></path></g></g><mask id="mask-ZFb4usm0xwkhzw8EhTkRb"><rect x="0" y="0" fill="#fff" width="1366.1651038420175" height="471.9429479017854"></rect><rect x="717.54168639879" y="278.9429479017854" fill="#000" width="174.36666870117188" height="25" opacity="1"></rect></mask><g transform="translate(717.54168639879 278.9429479017854) rotate(0 87.39162823070774 13.033887358559298)"><text x="87.18333435058594" y="0" font-family="Virgil, Segoe UI Emoji" font-size="20px" fill="#1e1e1e" text-anchor="middle" style="white-space: pre;" direction="ltr" dominant-baseline="text-before-edge">colon (end of key)</text></g><g mask="url(#mask-sXk-Z7jS627FVF1TYm8De)" stroke-linecap="round"><g transform="translate(588.3618040427566 395.9464474990076) rotate(0 -111.25 11.233203886454135)"><path d="M-0.3 -0.3 C-37.42 3.63, -185.09 18.81, -221.97 22.64 M1.74 -1.51 C-35.56 2.73, -185.38 20, -222.64 24.28" stroke="#1e1e1e" stroke-width="2" fill="none"></path></g><g transform="translate(588.3618040427566 395.9464474990076) rotate(0 -111.25 11.233203886454135)"><path d="M-200.28 13.1 C-209 17.98, -216.32 22.72, -222.64 24.28 M-200.28 13.1 C-206.95 15.83, -213.97 19.74, -222.64 24.28" stroke="#1e1e1e" stroke-width="2" fill="none"></path></g><g transform="translate(588.3618040427566 395.9464474990076) rotate(0 -111.25 11.233203886454135)"><path d="M-198.32 30.09 C-207.61 28.8, -215.64 27.36, -222.64 24.28 M-198.32 30.09 C-205.7 27.37, -213.35 25.83, -222.64 24.28" stroke="#1e1e1e" stroke-width="2" fill="none"></path></g></g><mask id="mask-sXk-Z7jS627FVF1TYm8De"><rect x="0" y="0" fill="#fff" width="910.8618040427566" height="518.4128552719159"></rect><rect x="393.9618025168777" y="382.17965138546174" fill="#000" width="166.3000030517578" height="50" opacity="1"></rect></mask><g transform="translate(393.9618025168777 382.17965138546174) rotate(0 83.95068413701836 25.150322314379736)"><text x="83.1500015258789" y="0" font-family="Virgil, Segoe UI Emoji" font-size="20px" fill="#1e1e1e" text-anchor="middle" style="white-space: pre;" direction="ltr" dominant-baseline="text-before-edge">other (start of </text><text x="83.1500015258789" y="25" font-family="Virgil, Segoe UI Emoji" font-size="20px" fill="#1e1e1e" text-anchor="middle" style="white-space: pre;" direction="ltr" dominant-baseline="text-before-edge">value)</text></g><g mask="url(#mask-Z3Yq9Be3xPApu1ZB62bp7)" stroke-linecap="round"><g transform="translate(223.0335271412494 410.9429479017854) rotate(0 -41.62166731033162 -137)"><path d="M0.95 -1.09 C-12.69 -46.72, -68.98 -228.35, -82.91 -273.64 M-0.01 0.95 C-13.69 -45.06, -69.83 -229.65, -83.68 -275.58" stroke="#1e1e1e" stroke-width="2" fill="none"></path></g><g transform="translate(223.0335271412494 410.9429479017854) rotate(0 -41.62166731033162 -137)"><path d="M-68.69 -255.57 C-73.72 -259.15, -74.49 -262.96, -83.68 -275.58 M-68.69 -255.57 C-75.2 -263.74, -81.25 -272.09, -83.68 -275.58" stroke="#1e1e1e" stroke-width="2" fill="none"></path></g><g transform="translate(223.0335271412494 410.9429479017854) rotate(0 -41.62166731033162 -137)"><path d="M-85.05 -250.62 C-86.6 -255.38, -83.9 -260.25, -83.68 -275.58 M-85.05 -250.62 C-85.08 -260.86, -84.7 -271.16, -83.68 -275.58" stroke="#1e1e1e" stroke-width="2" fill="none"></path></g></g><mask id="mask-Z3Yq9Be3xPApu1ZB62bp7"><rect x="0" y="0" fill="#fff" width="406.27686176191264" height="784.9429479017854"></rect><rect x="75.7868598309177" y="261.4429479017854" fill="#000" width="211.25" height="25" opacity="1"></rect></mask><g transform="translate(75.78685983091776 261.4429479017854) rotate(0 105.8828992456431 12.184805341614407)"><text x="105.625" y="0" font-family="Virgil, Segoe UI Emoji" font-size="20px" fill="#1e1e1e" text-anchor="middle" style="white-space: pre;" direction="ltr" dominant-baseline="text-before-edge">newline (end of value)</text></g><g mask="url(#mask-9GgVsBLERDKrtCFN1ZRBH)" stroke-linecap="round"><g transform="translate(896.8618040427566 204.2988553047354) rotate(0 -353.5 32.14409259704996)"><path d="M-0.99 0.6 C-80.92 22.56, -360.96 142.4, -478.62 131.18 C-596.27 119.96, -668.9 -33.46, -706.89 -66.71 M0.7 -0.13 C-78.92 22.04, -358.18 143.91, -476.23 132.47 C-594.27 121.04, -669.29 -35.35, -707.6 -68.71" stroke="#1e1e1e" stroke-width="2" fill="none"></path></g><g transform="translate(896.8618040427566 204.2988553047354) rotate(0 -353.5 32.14409259704996)"><path d="M-686.28 -55.65 C-693.34 -61.83, -703.25 -65.6, -707.6 -68.71 M-686.28 -55.65 C-694.66 -60.98, -702.23 -64.46, -707.6 -68.71" stroke="#1e1e1e" stroke-width="2" fill="none"></path></g><g transform="translate(896.8618040427566 204.2988553047354) rotate(0 -353.5 32.14409259704996)"><path d="M-699.66 -45 C-701.57 -55.13, -706.38 -62.96, -707.6 -68.71 M-699.66 -45 C-703.34 -54, -706.18 -61.25, -707.6 -68.71" stroke="#1e1e1e" stroke-width="2" fill="none"></path></g></g><mask id="mask-9GgVsBLERDKrtCFN1ZRBH"><rect x="0" y="0" fill="#fff" width="1703.8618040427566" height="503.2988553047354"></rect><rect x="274.2451353415847" y="323.4429479017854" fill="#000" width="289.23333740234375" height="25" opacity="1"></rect></mask><g transform="translate(274.2451353415847 323.4429479017854) rotate(0 269.1669233039487 -86.88399579292665)"><text x="144.61666870117188" y="0" font-family="Virgil, Segoe UI Emoji" font-size="20px" fill="#1e1e1e" text-anchor="middle" style="white-space: pre;" direction="ltr" dominant-baseline="text-before-edge">newline (end of keyless value)</text></g><g mask="url(#mask-Gn3N6cZiKt14w8ESHU8I7)" stroke-linecap="round"><g transform="translate(10.861804042756546 10.942947901785374) rotate(0 51.5 50)"><path d="M-0.86 -0.94 C16.15 15.84, 84.66 84.18, 101.96 101.04 M0.89 1.18 C18.27 17.62, 87.25 82.72, 104.13 99.46" stroke="#1e1e1e" stroke-width="2" fill="none"></path></g><g transform="translate(10.861804042756546 10.942947901785374) rotate(0 51.5 50)"><path d="M81.28 89.31 C86.37 90.69, 96.31 95.32, 104.13 99.46 M81.28 89.31 C88.28 93.14, 95.56 95.82, 104.13 99.46" stroke="#1e1e1e" stroke-width="2" fill="none"></path></g><g transform="translate(10.861804042756546 10.942947901785374) rotate(0 51.5 50)"><path d="M93.15 77 C94.83 81.87, 101.32 90.07, 104.13 99.46 M93.15 77 C96.38 84.73, 99.92 91.3, 104.13 99.46" stroke="#1e1e1e" stroke-width="2" fill="none"></path></g></g><mask id="mask-Gn3N6cZiKt14w8ESHU8I7"><rect x="0" y="0" fill="#fff" width="213.86180404275655" height="210.94294790178537"></rect><rect x="34.66180327981709" y="48.442947901785374" fill="#000" width="55.400001525878906" height="25" opacity="1"></rect></mask><g transform="translate(34.66180327981709 48.442947901785374) rotate(0 27.833473609895435 12.54692391008139)"><text x="27.700000762939453" y="0" font-family="Virgil, Segoe UI Emoji" font-size="20px" fill="#1e1e1e" text-anchor="middle" style="white-space: pre;" direction="ltr" dominant-baseline="text-before-edge">start</text></g><g mask="url(#mask-UOXW7mGc6SOerd67QFcPJ)" stroke-linecap="round"><g transform="translate(643.8618040427566 411.9429479017854) rotate(0 70.58463370875882 51.79675656080923)"><path d="M0.12 0.12 C9.61 17.35, 33.25 93.19, 56.95 102.36 C80.66 111.52, 139.5 72.04, 142.35 55.1 C145.2 38.17, 85.63 10.1, 74.06 0.73 M-1.28 -0.86 C8.06 16.61, 32.22 94, 55.98 103.55 C79.73 113.11, 138.19 73.98, 141.25 56.48 C144.31 38.98, 85.45 8.19, 74.33 -1.44" stroke="#1e1e1e" stroke-width="2" fill="none"></path></g><g transform="translate(643.8618040427566 411.9429479017854) rotate(0 70.58463370875882 51.79675656080923)"><path d="M98.59 4.61 C91.62 2.75, 83.13 -0.05, 74.33 -1.44 M98.59 4.61 C90.19 1.94, 83.88 1.47, 74.33 -1.44" stroke="#1e1e1e" stroke-width="2" fill="none"></path></g><g transform="translate(643.8618040427566 411.9429479017854) rotate(0 70.58463370875882 51.79675656080923)"><path d="M89.02 18.79 C85.03 12.7, 79.38 5.68, 74.33 -1.44 M89.02 18.79 C83.57 11.68, 80.21 6.84, 74.33 -1.44" stroke="#1e1e1e" stroke-width="2" fill="none"></path></g></g><mask id="mask-UOXW7mGc6SOerd67QFcPJ"><rect x="0" y="0" fill="#fff" width="886.8618040427566" height="614.9429479017854"></rect><rect x="723.3191179725386" y="488.2591250865278" fill="#000" width="55.03333282470703" height="25" opacity="1"></rect></mask><g transform="translate(723.3191179725386 488.2591250865278) rotate(0 -8.872680221023188 -24.519420623933172)"><text x="27.516666412353516" y="0" font-family="Virgil, Segoe UI Emoji" font-size="20px" fill="#1e1e1e" text-anchor="middle" style="white-space: pre;" direction="ltr" dominant-baseline="text-before-edge">space</text></g><g mask="url(#mask-IPZh3BLPkWT6r8R_DXZ6k)" stroke-linecap="round"><g transform="translate(248.86180404275655 463.9429479017854) rotate(0 -76.96754683517489 24.513578042850952)"><path d="M-0.19 0.39 C-14.09 12.72, -58.62 74.05, -83.98 73.94 C-109.34 73.83, -160.81 15.88, -152.35 -0.26 C-143.9 -16.4, -53.07 -19.14, -33.24 -22.92 M-1.74 -0.44 C-15.76 11.56, -59.75 72.6, -84.92 72.3 C-110.1 72.01, -161.41 13.99, -152.78 -2.22 C-144.15 -18.42, -53.35 -21, -33.12 -24.91" stroke="#1e1e1e" stroke-width="2" fill="none"></path></g><g transform="translate(248.86180404275655 463.9429479017854) rotate(0 -76.96754683517489 24.513578042850952)"><path d="M-55.56 -13.9 C-49.21 -16.63, -42.62 -18.37, -33.12 -24.91 M-55.56 -13.9 C-47.73 -17.2, -40.06 -21.73, -33.12 -24.91" stroke="#1e1e1e" stroke-width="2" fill="none"></path></g><g transform="translate(248.86180404275655 463.9429479017854) rotate(0 -76.96754683517489 24.513578042850952)"><path d="M-57.39 -30.9 C-50.58 -29.32, -43.53 -26.75, -33.12 -24.91 M-57.39 -30.9 C-48.93 -28.08, -40.6 -26.46, -33.12 -24.91" stroke="#1e1e1e" stroke-width="2" fill="none"></path></g></g><mask id="mask-IPZh3BLPkWT6r8R_DXZ6k"><rect x="0" y="0" fill="#fff" width="501.86180404275655" height="660.9429479017854"></rect><rect x="93.38319093317364" y="495.6797711726389" fill="#000" width="51.79999923706055" height="25" opacity="1"></rect></mask><g transform="translate(93.38319093317364 495.6797711726389) rotate(0 78.51106627440802 -7.223245228002554)"><text x="25.899999618530273" y="0" font-family="Virgil, Segoe UI Emoji" font-size="20px" fill="#1e1e1e" text-anchor="middle" style="white-space: pre;" direction="ltr" dominant-baseline="text-before-edge">other</text></g><g mask="url(#mask-o8vpFjZoS_ul0o9VdgOrC)" stroke-linecap="round"><g transform="translate(923.8618040427566 155.94294790178537) rotate(0 22.034420043973114 -53.7675560681285)"><path d="M0.29 -1.01 C-6.88 -16.17, -58.12 -73.2, -43.88 -90.36 C-29.64 -107.52, 67.56 -119.64, 85.73 -103.96 C103.9 -88.29, 68.4 -14.12, 65.15 3.68 M-1.02 1.07 C-8.17 -13.96, -58.63 -71.72, -44.24 -89.01 C-29.85 -106.29, 67.14 -117.71, 85.34 -102.63 C103.54 -87.54, 68.36 -16.15, 64.95 1.49" stroke="#1e1e1e" stroke-width="2" fill="none"></path></g><g transform="translate(923.8618040427566 155.94294790178537) rotate(0 22.034420043973114 -53.7675560681285)"><path d="M64.44 -23.51 C62.99 -15.9, 64.2 -10.82, 64.95 1.49 M64.44 -23.51 C64.61 -16.06, 64.65 -8.08, 64.95 1.49" stroke="#1e1e1e" stroke-width="2" fill="none"></path></g><g transform="translate(923.8618040427566 155.94294790178537) rotate(0 22.034420043973114 -53.7675560681285)"><path d="M80.62 -17.99 C75.43 -11.61, 72.92 -7.8, 64.95 1.49 M80.62 -17.99 C75.93 -12.12, 71.07 -5.81, 64.95 1.49" stroke="#1e1e1e" stroke-width="2" fill="none"></path></g></g><mask id="mask-o8vpFjZoS_ul0o9VdgOrC"><rect x="0" y="0" fill="#fff" width="1153.8618040427566" height="362.9429479017854"></rect><rect x="920.1231092321" y="33.67633500693856" fill="#000" width="51.79999923706055" height="25" opacity="1"></rect></mask><g transform="translate(920.1231092321002 33.67633500693856) rotate(0 25.77311485462974 68.49905682671832)"><text x="25.899999618530273" y="0" font-family="Virgil, Segoe UI Emoji" font-size="20px" fill="#1e1e1e" text-anchor="middle" style="white-space: pre;" direction="ltr" dominant-baseline="text-before-edge">other</text></g></svg>