<?xml version="1.0" encoding="UTF-8" standalone="no"?>
<!DOCTYPE svg PUBLIC "-//W3C//DTD SVG 1.1//EN"
 "http://www.w3.org/Graphics/SVG/1.1/DTD/svg11.dtd">
<!-- Generated by graphviz version 2.43.0 (0)
 -->
<!-- Title: HeaderParser Pages: 1 -->
<svg width="795pt" height="392pt"
 viewBox="0.00 0.00 794.67 392.00" xmlns="http://www.w3.org/2000/svg" xmlns:xlink="http://www.w3.org/1999/xlink">
<g id="graph0" class="graph" transform="scale(1 1) rotate(0) translate(4 388)">
<title>HeaderParser</title>
<polygon fill="#0d1117" stroke="transparent" points="-4,4 -4,-388 790.67,-388 790.67,4 -4,4"/>
<!-- Before First Space -->
<g id="node1" class="node">
<title>Before First Space</title>
<ellipse fill="none" stroke="#4da6ff" cx="535.67" cy="-366" rx="97.48" ry="18"/>
<text text-anchor="middle" x="535.67" y="-362.3" font-family="Times,serif" font-size="14.00" fill="#fffdb8">Before First Space</text>
</g>
<!-- Before Key -->
<g id="node2" class="node">
<title>Before Key</title>
<ellipse fill="none" stroke="#4da6ff" cx="473.67" cy="-279" rx="61.99" ry="18"/>
<text text-anchor="middle" x="473.67" y="-275.3" font-family="Times,serif" font-size="14.00" fill="#fffdb8">Before Key</text>
</g>
<!-- Before First Space&#45;&gt;Before Key -->
<g id="edge1" class="edge">
<title>Before First Space&#45;&gt;Before Key:e</title>
</g>
<!-- Before First Space&#45;&gt;Before Key -->
<g id="edge5" class="edge">
<title>Before First Space&#45;&gt;Before Key</title>
<path fill="none" stroke="#fffdb8" d="M518.39,-348.25C513.06,-342.68 507.37,-336.29 502.67,-330 497.15,-322.6 491.86,-314.06 487.33,-306.16"/>
<polygon fill="#fffdb8" stroke="#fffdb8" points="490.32,-304.33 482.41,-297.28 484.2,-307.72 490.32,-304.33"/>
<text text-anchor="middle" x="523.17" y="-318.8" font-family="Times,serif" font-size="14.00" fill="#fffdb8">space</text>
</g>
<!-- First String -->
<g id="node3" class="node">
<title>First String</title>
<ellipse fill="none" stroke="#4da6ff" cx="469.67" cy="-192" rx="65.79" ry="18"/>
<text text-anchor="middle" x="469.67" y="-188.3" font-family="Times,serif" font-size="14.00" fill="#fffdb8">First String</text>
</g>
<!-- Before First Space&#45;&gt;First String -->
<g id="edge7" class="edge">
<title>Before First Space&#45;&gt;First String</title>
<path fill="none" stroke="#fffdb8" d="M442.04,-360.88C345,-354.42 202.81,-338.04 168.67,-297 104.03,-219.28 285.29,-199.52 394.16,-194.58"/>
<polygon fill="#fffdb8" stroke="#fffdb8" points="394.61,-198.07 404.46,-194.15 394.32,-191.07 394.61,-198.07"/>
<text text-anchor="middle" x="236.67" y="-275.3" font-family="Times,serif" font-size="14.00" fill="#fffdb8">other (start of key)</text>
</g>
<!-- DONE -->
<g id="node6" class="node">
<title>DONE</title>
<ellipse fill="none" stroke="#4da6ff" cx="353.67" cy="-279" rx="40.09" ry="18"/>
<text text-anchor="middle" x="353.67" y="-275.3" font-family="Times,serif" font-size="14.00" fill="#fffdb8">DONE</text>
</g>
<!-- Before First Space&#45;&gt;DONE -->
<g id="edge6" class="edge">
<title>Before First Space&#45;&gt;DONE</title>
<path fill="none" stroke="#fffdb8" d="M485.22,-350.5C468.19,-344.91 449.29,-337.94 432.67,-330 415.33,-321.71 397.13,-310.39 382.57,-300.62"/>
<polygon fill="#fffdb8" stroke="#fffdb8" points="384.25,-297.53 374.02,-294.77 380.3,-303.31 384.25,-297.53"/>
<text text-anchor="middle" x="460.67" y="-318.8" font-family="Times,serif" font-size="14.00" fill="#fffdb8">newline</text>
</g>
<!-- Before Key&#45;&gt;Before Key -->
<g id="edge8" class="edge">
<title>Before Key&#45;&gt;Before Key</title>
<path fill="none" stroke="#fffdb8" d="M529.57,-286.75C543.24,-286.18 553.42,-283.59 553.42,-279 553.42,-275.63 547.93,-273.34 539.6,-272.13"/>
<polygon fill="#fffdb8" stroke="#fffdb8" points="539.84,-268.64 529.57,-271.25 539.22,-275.61 539.84,-268.64"/>
<text text-anchor="middle" x="573.92" y="-275.3" font-family="Times,serif" font-size="14.00" fill="#fffdb8">space</text>
</g>
<!-- Before Key&#45;&gt;First String -->
<g id="edge2" class="edge">
<title>Before Key:e&#45;&gt;First String:e</title>
</g>
<!-- Before Key&#45;&gt;First String -->
<g id="edge9" class="edge">
<title>Before Key&#45;&gt;First String</title>
<path fill="none" stroke="#fffdb8" d="M428.84,-266.55C399.89,-258.71 366.87,-248.72 362.67,-243 347.64,-222.5 372.27,-210.13 401.66,-202.82"/>
<polygon fill="#fffdb8" stroke="#fffdb8" points="402.79,-206.15 411.77,-200.53 401.24,-199.33 402.79,-206.15"/>
<text text-anchor="middle" x="461.67" y="-231.8" font-family="Times,serif" font-size="14.00" fill="#fffdb8">other (start of key or value)</text>
</g>
<!-- First String&#45;&gt;First String -->
<g id="edge10" class="edge">
<title>First String&#45;&gt;First String</title>
<path fill="none" stroke="#fffdb8" d="M529.07,-199.72C543.02,-199.08 553.32,-196.51 553.32,-192 553.32,-188.69 547.76,-186.42 539.29,-185.2"/>
<polygon fill="#fffdb8" stroke="#fffdb8" points="539.34,-181.69 529.07,-184.28 538.71,-188.66 539.34,-181.69"/>
<text text-anchor="middle" x="572.82" y="-188.3" font-family="Times,serif" font-size="14.00" fill="#fffdb8">other</text>
</g>
<!-- After Key -->
<g id="node4" class="node">
<title>After Key</title>
<ellipse fill="none" stroke="#4da6ff" cx="481.67" cy="-105" rx="53.89" ry="18"/>
<text text-anchor="middle" x="481.67" y="-101.3" font-family="Times,serif" font-size="14.00" fill="#fffdb8">After Key</text>
</g>
<!-- First String&#45;&gt;After Key -->
<g id="edge3" class="edge">
<title>First String:e&#45;&gt;After Key:e</title>
</g>
<!-- First String&#45;&gt;After Key -->
<g id="edge11" class="edge">
<title>First String&#45;&gt;After Key</title>
<path fill="none" stroke="#fffdb8" d="M446.53,-174.71C436.19,-165.31 427.56,-153.01 433.67,-141 436.43,-135.58 440.46,-130.8 445.03,-126.66"/>
<polygon fill="#fffdb8" stroke="#fffdb8" points="447.43,-129.22 453.11,-120.27 443.09,-123.73 447.43,-129.22"/>
<text text-anchor="middle" x="497.17" y="-144.8" font-family="Times,serif" font-size="14.00" fill="#fffdb8">colon (end of key)</text>
</g>
<!-- After Key&#45;&gt;Before First Space -->
<g id="edge12" class="edge">
<title>After Key&#45;&gt;Before First Space</title>
<path fill="none" stroke="#fffdb8" d="M430.67,-110.87C298.19,-124.64 -43.27,-167.81 4.67,-243 53.96,-320.29 103.29,-305.69 191.67,-330 269.16,-351.31 359.68,-359.91 428.41,-363.26"/>
<polygon fill="#fffdb8" stroke="#fffdb8" points="428.67,-366.77 438.82,-363.73 428.99,-359.78 428.67,-366.77"/>
<text text-anchor="middle" x="84.17" y="-231.8" font-family="Times,serif" font-size="14.00" fill="#fffdb8">newline (empty value)</text>
</g>
<!-- After Key&#45;&gt;After Key -->
<g id="edge13" class="edge">
<title>After Key&#45;&gt;After Key</title>
<path fill="none" stroke="#fffdb8" d="M530.43,-112.82C543.6,-112.4 553.62,-109.8 553.62,-105 553.62,-101.55 548.44,-99.23 540.64,-98.05"/>
<polygon fill="#fffdb8" stroke="#fffdb8" points="540.69,-94.54 530.43,-97.18 540.1,-101.52 540.69,-94.54"/>
<text text-anchor="middle" x="574.12" y="-101.3" font-family="Times,serif" font-size="14.00" fill="#fffdb8">space</text>
</g>
<!-- During Value -->
<g id="node5" class="node">
<title>During Value</title>
<ellipse fill="none" stroke="#4da6ff" cx="463.67" cy="-18" rx="71.49" ry="18"/>
<text text-anchor="middle" x="463.67" y="-14.3" font-family="Times,serif" font-size="14.00" fill="#fffdb8">During Value</text>
</g>
<!-- After Key&#45;&gt;During Value -->
<g id="edge4" class="edge">
<title>After Key:e&#45;&gt;During Value:e</title>
</g>
<!-- After Key&#45;&gt;During Value -->
<g id="edge14" class="edge">
<title>After Key&#45;&gt;During Value</title>
<path fill="none" stroke="#fffdb8" d="M441.49,-92.91C429.85,-87.63 418.46,-79.98 411.67,-69 405,-58.2 411.77,-48.11 422.38,-39.86"/>
<polygon fill="#fffdb8" stroke="#fffdb8" points="424.37,-42.74 430.65,-34.2 420.42,-36.96 424.37,-42.74"/>
<text text-anchor="middle" x="486.17" y="-57.8" font-family="Times,serif" font-size="14.00" fill="#fffdb8">other (start of value)</text>
</g>
<!-- During Value&#45;&gt;Before First Space -->
<g id="edge15" class="edge">
<title>During Value&#45;&gt;Before First Space</title>
<path fill="none" stroke="#fffdb8" d="M527.47,-26.25C573.9,-35.49 628.67,-56.47 628.67,-104 628.67,-280 628.67,-280 628.67,-280 628.67,-308.41 604.73,-329.88 581.14,-344.13"/>
<polygon fill="#fffdb8" stroke="#fffdb8" points="579.12,-341.25 572.16,-349.24 582.58,-347.33 579.12,-341.25"/>
<text text-anchor="middle" x="707.67" y="-188.3" font-family="Times,serif" font-size="14.00" fill="#fffdb8">newline (end of value)</text>
</g>
<!-- During Value&#45;&gt;During Value -->
<g id="edge16" class="edge">
<title>During Value&#45;&gt;During Value</title>
<path fill="none" stroke="#fffdb8" d="M528.43,-25.66C542.74,-24.94 553.17,-22.39 553.17,-18 553.17,-14.74 547.43,-12.5 538.61,-11.26"/>
<polygon fill="#fffdb8" stroke="#fffdb8" points="538.71,-7.75 528.43,-10.34 538.08,-14.73 538.71,-7.75"/>
<text text-anchor="middle" x="572.67" y="-14.3" font-family="Times,serif" font-size="14.00" fill="#fffdb8">other</text>
</g>
</g>
</svg>
